<?xml version="1.0" encoding="UTF-8"?>
<!DOCTYPE svg PUBLIC "-//W3C//DTD SVG 1.1//EN" "http://www.w3.org/Graphics/SVG/1.1/DTD/svg11.dtd">
<svg xmlns="http://www.w3.org/2000/svg" xmlns:xlink="http://www.w3.org/1999/xlink" version="1.1" width="418px" height="401px" viewBox="-0.5 -0.5 418 401"><defs/><g><ellipse cx="364" cy="255" rx="5" ry="5" fill="#ffffff" stroke="#000000" pointer-events="all"/><ellipse cx="103.5" cy="36" rx="10" ry="10" fill="#ffffff" stroke="#000000" pointer-events="all"/><path d="M 289.01 61.56 L 213.5 328" fill="none" stroke="#ff9933" stroke-width="7" stroke-miterlimit="10" pointer-events="stroke"/><path d="M 313.46 72 C 293.75 72 279 55.73 279 37.98 L 279 33.95 C 279 16.66 293.1 0 313.72 0 C 332.45 0 348 15.51 348 34.16 L 347.98 37.69 C 347.98 55.28 333.63 72 313.46 72 Z" fill="#f58534" stroke="none" pointer-events="all"/><path d="M 279 33.95 C 279 54.02 294.58 69.14 313.28 69.14 C 332.16 69.14 348 54.19 348 34.16 L 347.98 37.69 C 347.98 55.29 333.63 72 313.46 72 C 293.66 72 279 55.67 279 37.98 Z" fill-opacity="0.3" fill="#000000" stroke="none" pointer-events="all"/><rect x="279" y="0" width="0" height="0" fill="none" stroke="#000000" pointer-events="all"/><path d="M 292.59 55.59 L 310.44 23.75 L 308.31 18.15 L 302.14 18.15 L 302.14 10.62 L 313.48 10.62 L 327.28 46.82 L 333.26 44.52 L 335.94 51.56 L 322.94 56.53 L 313.93 32.89 L 301.22 55.59 Z" fill="#ffffff" stroke="none" pointer-events="all"/><path d="M 109.02 59.98 L 360.03 251.96" fill="none" stroke="#ff9933" stroke-width="7" stroke-miterlimit="10" pointer-events="stroke"/><path d="M 107.03 45.36 L 213.5 328" fill="none" stroke="#ff9933" stroke-width="7" stroke-miterlimit="10" pointer-events="stroke"/><path d="M 103.46 72 C 83.75 72 69 55.73 69 37.98 L 69 33.95 C 69 16.66 83.1 0 103.72 0 C 122.45 0 138 15.51 138 34.16 L 137.98 37.69 C 137.98 55.28 123.63 72 103.46 72 Z" fill="#f58534" stroke="none" pointer-events="all"/><path d="M 69 33.95 C 69 54.02 84.58 69.14 103.28 69.14 C 122.16 69.14 138 54.19 138 34.16 L 137.98 37.69 C 137.98 55.29 123.63 72 103.46 72 C 83.66 72 69 55.67 69 37.98 Z" fill-opacity="0.3" fill="#000000" stroke="none" pointer-events="all"/><rect x="69" y="0" width="0" height="0" fill="none" stroke="#000000" pointer-events="all"/><path d="M 82.59 55.59 L 100.44 23.75 L 98.31 18.15 L 92.14 18.15 L 92.14 10.62 L 103.48 10.62 L 117.28 46.82 L 123.26 44.52 L 125.94 51.56 L 112.94 56.53 L 103.93 32.89 L 91.22 55.59 Z" fill="#ffffff" stroke="none" pointer-events="all"/><path d="M 69 246 L 289.01 61.56" fill="none" stroke="#ff9933" stroke-width="7" stroke-miterlimit="10" pointer-events="stroke"/><path d="M 34.46 282 C 14.75 282 0 265.73 0 247.98 L 0 243.95 C 0 226.66 14.1 210 34.72 210 C 53.45 210 69 225.51 69 244.16 L 68.98 247.69 C 68.98 265.28 54.63 282 34.46 282 Z" fill="#f58534" stroke="none" pointer-events="all"/><path d="M 0 243.95 C 0 264.02 15.58 279.14 34.28 279.14 C 53.16 279.14 69 264.19 69 244.16 L 68.98 247.69 C 68.98 265.29 54.63 282 34.46 282 C 14.66 282 0 265.67 0 247.98 Z" fill-opacity="0.3" fill="#000000" stroke="none" pointer-events="all"/><rect x="0" y="210" width="0" height="0" fill="none" stroke="#000000" pointer-events="all"/><path d="M 13.59 265.59 L 31.44 233.75 L 29.31 228.15 L 23.14 228.15 L 23.14 220.62 L 34.48 220.62 L 48.28 256.82 L 54.26 254.52 L 56.94 261.56 L 43.94 266.53 L 34.93 242.89 L 22.22 265.59 Z" fill="#ffffff" stroke="none" pointer-events="all"/><path d="M 213.46 400 C 193.75 400 179 383.73 179 365.98 L 179 361.95 C 179 344.66 193.1 328 213.72 328 C 232.45 328 248 343.51 248 362.16 L 247.98 365.69 C 247.98 383.28 233.63 400 213.46 400 Z" fill="#f58534" stroke="none" pointer-events="all"/><path d="M 179 361.95 C 179 382.02 194.58 397.14 213.28 397.14 C 232.16 397.14 248 382.19 248 362.16 L 247.98 365.69 C 247.98 383.29 233.63 400 213.46 400 C 193.66 400 179 383.67 179 365.98 Z" fill-opacity="0.3" fill="#000000" stroke="none" pointer-events="all"/><rect x="179" y="328" width="0" height="0" fill="none" stroke="#000000" pointer-events="all"/><path d="M 192.59 383.59 L 210.44 351.75 L 208.31 346.15 L 202.14 346.15 L 202.14 338.62 L 213.48 338.62 L 227.28 374.82 L 233.26 372.52 L 235.94 379.56 L 222.94 384.53 L 213.93 360.89 L 201.22 383.59 Z" fill="#ffffff" stroke="none" pointer-events="all"/><path d="M 348 246 L 69 246" fill="none" stroke="#ff9933" stroke-width="7" stroke-miterlimit="10" pointer-events="stroke"/><path d="M 382.46 282 C 362.75 282 348 265.73 348 247.98 L 348 243.95 C 348 226.66 362.1 210 382.72 210 C 401.45 210 417 225.51 417 244.16 L 416.98 247.69 C 416.98 265.28 402.63 282 382.46 282 Z" fill="#f58534" stroke="none" pointer-events="all"/><path d="M 348 243.95 C 348 264.02 363.58 279.14 382.28 279.14 C 401.16 279.14 417 264.19 417 244.16 L 416.98 247.69 C 416.98 265.29 402.63 282 382.46 282 C 362.66 282 348 265.67 348 247.98 Z" fill-opacity="0.3" fill="#000000" stroke="none" pointer-events="all"/><rect x="348" y="210" width="0" height="0" fill="none" stroke="#000000" pointer-events="all"/><path d="M 361.59 265.59 L 379.44 233.75 L 377.31 228.15 L 371.14 228.15 L 371.14 220.62 L 382.48 220.62 L 396.28 256.82 L 402.26 254.52 L 404.94 261.56 L 391.94 266.53 L 382.93 242.89 L 370.22 265.59 Z" fill="#ffffff" stroke="none" pointer-events="all"/></g></svg>