<?xml version="1.0" encoding="utf-8"?>
<!-- Generator: Adobe Illustrator 27.0.1, SVG Export Plug-In . SVG Version: 6.00 Build 0)  -->
<svg version="1.1" xmlns="http://www.w3.org/2000/svg" xmlns:xlink="http://www.w3.org/1999/xlink" x="0px" y="0px"
	 viewBox="0 0 1420 900" style="enable-background:new 0 0 1420 900;" xml:space="preserve">
<style type="text/css">
	.st0{fill:#0D1545;}
	.st1{fill:#1A2F84;}
	.st2{opacity:0.1;fill:#FFFFFF;}
	.st3{fill:#E5B64E;}
	.st4{fill:#C99E47;}
	.st5{fill:#B77158;}
	.st6{opacity:0.25;fill:#FFFFFF;}
	.st7{fill:#198E88;}
	.st8{fill:#146D66;}
	.st9{fill:#070D23;}
	.st10{fill:#82BDDB;}
	.st11{fill:#95D8FF;}
	.st12{fill:#B7A286;}
	.st13{fill:#A6E1FF;}
	.st14{fill:#9B8973;}
	.st15{fill:#A3A3A3;}
	.st16{fill:#827362;}
	.st17{fill:#C6C6C6;}
	.st18{fill:#F7E4BC;}
	.st19{fill:#D1C0A1;}
	.st20{opacity:0.28;fill:#FFFFFF;}
	.st21{fill:#FFFFFF;stroke:#FFFFFF;stroke-miterlimit:10;}
	.st22{fill:#FFFFFF;}
	.st23{fill:#F6D2A2;}
	.st24{opacity:0.53;fill:#B7B7B7;}
	.st25{opacity:0.43;fill:#FCFCFC;}
	.st26{fill:#B5D1EF;}
	.st27{fill:#DFF0FF;}
	.st28{fill:#D1A44A;}
	.st29{fill:#F5D1A4;}
</style>
<g id="Warstwa_1">
	<path class="st0" d="M1159.67,400.68l-41.27-0.38l1.18-129.32c0,0,7.04-4.44,20.68-4.32c15.1,0.14,20.59,4.69,20.59,4.69
		L1159.67,400.68z"/>
	<path class="st1" d="M1140.25,266.67c-2-0.02-3.86,0.06-5.57,0.21c10.55,1.06,14.56,4.37,14.56,4.37l-1.18,129.32l11.61,0.11
		l1.18-129.32C1160.85,271.37,1155.35,266.81,1140.25,266.67z"/>
	<path class="st2" d="M1125.12,275.37c-0.54,2,0.01,4.1,0.44,6.12c3.51,16.5-0.57,33.67,0.98,50.47c0.08,0.83,0.47,1.91,1.3,1.8
		c0.69-0.09,0.92-0.97,0.98-1.66c1.52-17.66-1.72-35.78,2.46-53.01c0.44-1.83,1.27-5.61-0.84-6.82
		C1128.33,271.07,1125.63,273.44,1125.12,275.37z"/>
	<g>
		<path class="st3" d="M1281.08,405.81h-60.47V173.98c0,0,10.25-8.08,30.24-8.08c22.12,0,30.24,8.08,30.24,8.08V405.81z"/>
		<path class="st4" d="M1250.63,165.9c-2.66,0-5.15,0.15-7.47,0.4c16.02,1.62,22.13,7.68,22.13,7.68v231.83h15.58V173.98
			C1280.87,173.98,1272.75,165.9,1250.63,165.9z"/>
		<path class="st5" d="M1272.93,351.43c0.18-2.44,0.04-4.91-0.4-7.32c-9.94-0.52-43.14-0.13-43.14-0.13s-0.92,1.04,0,8.26
			C1233.48,349.37,1273.11,349.01,1272.93,351.43z"/>
		<path class="st5" d="M1273.63,362.84c0.18-2.44,0.04-4.91-0.4-7.32c-9.94-0.52-43.14-0.13-43.14-0.13s-0.93,1.05,0,8.26
			C1234.18,360.78,1273.81,360.41,1273.63,362.84z"/>
		<path class="st5" d="M1232.42,398.74c12.79-1.61,26.12-3.16,38.31,1.04c0-9.93-0.01-19.86-0.01-29.79c0-0.32,0-0.65-0.15-0.93
			c-0.17-0.32-0.51-0.52-0.83-0.68c-3.53-1.8-7.67-1.87-11.64-1.83c-4.56,0.05-9.12,0.18-13.67,0.41c-4.03,0.2-9.23-0.22-13.01,1.06
			C1231.75,370.6,1233.41,398.62,1232.42,398.74z"/>
		<path class="st6" d="M1228.55,177.44c-2.02,4.94-1,10.53-0.28,15.82c2.95,21.47,0.63,43.33,2.48,64.92c0.17,2.02,0.98,4.61,3,4.61
			c2.18,0,2.85-2.93,2.85-5.11c-0.07-20.84,0.63-41.67,2.1-62.46c0.27-3.88,0.81-8.21,3.84-10.63c2.68-2.14,7.21-2.86,7.68-6.25
			c0.53-3.88-6.04-7.07-9.26-7.57C1235.98,169.99,1230.47,172.73,1228.55,177.44z"/>
		<path class="st6" d="M1231.35,271.81c-1.73,3.2-0.94,7.11-0.28,10.68c1.6,8.81,2.06,17.83,1.37,26.76c-0.11,1.48-0.26,3,0.16,4.43
			c0.42,1.43,1.56,2.75,3.04,2.9c1.53,0.16,2.95-1,3.6-2.39c0.65-1.39,0.7-2.98,0.74-4.51c0.22-9.51,0.23-19.02,0.04-28.53
			c-0.04-2.15-0.1-4.33-0.76-6.37C1238.21,271.52,1233.89,267.11,1231.35,271.81z"/>
	</g>
	<path class="st7" d="M1329.42,403.32l-48.34-0.37l1.37-180.28c0,0,8.24-6.22,24.22-6.1c17.68,0.13,24.12,6.46,24.12,6.46
		L1329.42,403.32z"/>
	<path class="st8" d="M1306.5,216.58c-2.13-0.02-4.12,0.08-5.97,0.26c12.8,1.36,17.64,6.11,17.64,6.11l-1.37,180.28l12.45,0.09
		l1.37-180.28C1330.62,223.04,1324.18,216.71,1306.5,216.58z"/>
	<path class="st6" d="M1288.78,225.42c-1.64,3.83-0.86,8.18-0.31,12.3c2.23,16.71,0.24,33.7,1.6,50.5c0.13,1.57,0.75,3.59,2.37,3.6
		c1.74,0.02,2.3-2.26,2.31-3.95c0.07-16.2,0.75-32.4,2.05-48.56c0.24-3.01,0.69-6.38,3.13-8.25c2.15-1.65,5.78-2.18,6.17-4.81
		c0.45-3.01-4.79-5.53-7.35-5.94C1294.76,219.66,1290.34,221.77,1288.78,225.42z"/>
	<path class="st6" d="M1290.46,298.82c-1.4,2.48-0.79,5.52-0.29,8.31c1.23,6.86,1.54,13.88,0.94,20.82
		c-0.1,1.15-0.22,2.33,0.11,3.44c0.33,1.11,1.23,2.15,2.41,2.27c1.22,0.13,2.36-0.76,2.89-1.83c0.53-1.08,0.58-2.31,0.62-3.51
		c0.23-7.39,0.29-14.79,0.2-22.18c-0.02-1.67-0.06-3.37-0.57-4.96C1295.95,298.63,1292.51,295.17,1290.46,298.82z"/>
	<path class="st1" d="M1220.12,401.35h-60.47V211.87c0,0,10.25-6.6,30.24-6.6c22.12,0,30.24,6.6,30.24,6.6V401.35z"/>
	<path class="st0" d="M1189.88,205.27c-2.93,0-5.65,0.15-8.16,0.39c15.47,1.41,21.39,6.21,21.39,6.21v189.48h17.01V211.87
		C1220.12,211.87,1212,205.27,1189.88,205.27z"/>
	<path class="st3" d="M1220.12,230.71c-10.15-4.04-21.64-4.29-32.64-3.41c-8.88,0.71-17.81,2.1-26.18,5.26
		c-0.57,0.21-1.12,0.42-1.66,0.62v9.67c2.27-1.3,4.68-2.37,7.11-3.3c14.89-5.7,31.48-6.86,47.03-3.3c2.13,0.49,4.32,1.13,6.33,2.03
		V230.71z"/>
	<path class="st4" d="M1220.12,238.25v-7.57c-5.39-2.14-11.15-3.21-17.01-3.62v7.47c3.59,0.32,7.16,0.88,10.68,1.69
		C1215.92,236.71,1218.1,237.35,1220.12,238.25z"/>
	<path class="st7" d="M1220.05,254.36v-7.57c-5.39-2.14-11.15-3.21-17.01-3.62v7.47c3.59,0.32,7.16,0.88,10.68,1.69
		C1215.85,252.81,1218.04,253.45,1220.05,254.36z"/>
	<path class="st3" d="M1220.12,246.67c-10.15-4.04-21.64-4.29-32.64-3.41c-8.88,0.71-17.81,2.1-26.18,5.26
		c-0.57,0.21-1.12,0.42-1.66,0.62v9.67c2.27-1.3,4.68-2.37,7.11-3.3c14.89-5.7,31.48-6.86,47.03-3.3c2.13,0.49,4.32,1.13,6.33,2.03
		V246.67z"/>
	<path class="st4" d="M1220.05,254.36v-7.57c-5.39-2.14-11.15-3.21-17.01-3.62v7.47c3.59,0.32,7.16,0.88,10.68,1.69
		C1215.85,252.81,1218.04,253.45,1220.05,254.36z"/>
	<path class="st3" d="M1211.74,391.05h-40.95v-38.49c0,0,12.06-2.15,20.48-2.18c9.66-0.04,20.48,2.18,20.48,2.18V391.05z"/>
	<path class="st4" d="M1211.74,352.7c0,0-3.86-0.79-9.02-1.42c0.04,0.2,0.07,0.41,0.1,0.6c0.75,5.23-0.07,10.59-1.84,15.54
		c-1.02,2.83-2.36,5.55-3.95,8.1c-1.49,2.38-3.19,4.64-5.22,6.57c-5.58,5.3-13.27,7.7-21.01,8.38v0.72h40.95V352.7z"/>
	<path class="st2" d="M1167.82,218.22c-0.76,2.93,0.06,6,0.72,8.96c5.36,24.12-0.39,49.34,2.12,73.93c0.12,1.21,0.72,2.8,1.92,2.62
		c1.01-0.15,1.33-1.43,1.41-2.44c1.99-25.9-3-52.4,2.89-77.7c0.62-2.68,1.79-8.24-1.33-9.98
		C1172.47,211.87,1168.55,215.39,1167.82,218.22z"/>
	<path class="st2" d="M1171.21,310.72c0.25,5.76,0.5,11.51,0.75,17.26c0.05,1.12,0.11,2.28,0.59,3.29c0.48,1.01,1.5,1.85,2.62,1.77
		c0.34-0.03,0.69-0.15,0.92-0.4c0.36-0.39,0.36-0.99,0.34-1.52c-0.22-5.41-0.43-10.82-0.65-16.23c-0.07-1.75,0.56-5.83-1.13-7
		C1172.54,306.43,1171.13,308.84,1171.21,310.72z"/>
	<path class="st9" d="M950.72,214.43l5.16,72.2c0,0,72.62,135.93,74.25,135.53c1.63-0.4,54.46-14.99,54.46-14.99L950.72,214.43z"/>
	<path class="st0" d="M1099.92,396.64l-36.15,20.19l-113.05-202.4c0,0,2.19-10.48,14.14-17.15c13.22-7.39,22.02-3.04,22.02-3.04
		L1099.92,396.64z"/>
	<path class="st1" d="M964.73,197.35c-1.59,0.89-3.01,1.85-4.27,2.84c10.37-3.94,16.98-0.68,16.98-0.68l113.05,202.4l11.41-1.44
		L986.75,194.31C986.75,194.31,977.96,189.97,964.73,197.35z"/>
	<g>
		<path class="st4" d="M1128.9,283.54c7.04-2.07,14.45-2.88,21.78-2.39c2.09,0.14,4.18,0.39,6.25,0.74
			c0.75,0.13,0.94-1.05,0.18-1.18c-7.42-1.25-15.07-1.18-22.46,0.22c-2.08,0.39-4.13,0.89-6.16,1.49
			C1127.74,282.65,1128.17,283.76,1128.9,283.54L1128.9,283.54z"/>
	</g>
	<g>
		<path class="st4" d="M1130.01,289.22c4.43-0.78,8.9-1.29,13.39-1.52c2.23-0.11,4.46-0.15,6.69-0.12c1.13,0.01,2.27,0.05,3.4,0.1
			c0.57,0.03,1.15,0.06,1.72,0.09c0.23,0.01,1.28-0.06,1.38,0.21c0.26,0.72,1.38,0.3,1.11-0.42c-0.26-0.72-0.97-0.88-1.66-0.93
			c-0.97-0.07-1.94-0.12-2.91-0.16c-1.85-0.08-3.7-0.11-5.55-0.09c-3.78,0.04-7.55,0.27-11.3,0.71c-2.14,0.25-4.28,0.56-6.4,0.94
			C1129.14,288.17,1129.26,289.36,1130.01,289.22L1130.01,289.22z"/>
	</g>
	<g>
		<path class="st4" d="M1056.58,388.97c2.38-2.58,5.42-4.36,8.55-5.89c3.53-1.73,7.15-3.3,10.73-4.94c2.03-0.93,4.06-1.85,6.21-2.47
			c-0.22-0.29-0.45-0.58-0.67-0.87c-0.17,0.24-0.33,0.48-0.5,0.71c-0.44,0.63,0.59,1.23,1.03,0.6c0.17-0.24,0.33-0.48,0.5-0.71
			c0.3-0.44-0.2-1.01-0.67-0.87c-3.9,1.13-7.57,3.09-11.25,4.77c-3.4,1.56-6.9,3.01-10.07,5.01c-1.71,1.08-3.32,2.34-4.69,3.83
			C1055.22,388.69,1056.06,389.54,1056.58,388.97L1056.58,388.97z"/>
	</g>
	<g>
		<path class="st4" d="M1059.78,394.07c4.03-2.53,8.17-4.9,12.4-7.08c2.12-1.09,4.25-2.14,6.41-3.14c1.08-0.5,2.16-0.99,3.25-1.46
			c0.56-0.24,1.11-0.49,1.68-0.72c0.51-0.21,1.02-0.39,1.57-0.21c0.73,0.24,1.04-0.91,0.32-1.15c-0.82-0.27-1.62-0.03-2.39,0.29
			c-0.87,0.36-1.74,0.74-2.6,1.13c-1.77,0.78-3.52,1.6-5.26,2.44c-3.51,1.71-6.96,3.54-10.35,5.48c-1.9,1.09-3.78,2.23-5.64,3.39
			C1058.54,393.45,1059.13,394.48,1059.78,394.07L1059.78,394.07z"/>
	</g>
	<polygon class="st10" points="902.3,199.37 879.25,238.25 926.72,414.6 976.14,414.6 929.86,243.9 	"/>
	<g>
		<path class="st11" d="M1004.14,411.71l-39.91,11.06l-61.94-223.4c0,0,4.61-9.66,17.8-13.32c14.6-4.05,22.11,2.25,22.11,2.25
			L1004.14,411.71z"/>
		<path class="st10" d="M919.96,186.09c-1.76,0.49-3.36,1.08-4.82,1.75c11.01-1.37,16.65,3.35,16.65,3.35l61.94,223.4l10.28-2.85
			l-61.94-223.4C942.07,188.35,934.55,182.05,919.96,186.09z"/>
		<g>
			<path class="st3" d="M910.27,204.03c0.07-0.07,0.15-0.13,0.22-0.2c0.05-0.05,0.38-0.31,0.14-0.12c-0.22,0.17,0.04-0.03,0.07-0.05
				c0.08-0.06,0.16-0.11,0.24-0.17c0.38-0.25,0.78-0.48,1.19-0.68c0.21-0.1,0.42-0.19,0.63-0.29c-0.38,0.18,0,0,0.17-0.06
				c0.43-0.17,0.87-0.33,1.31-0.48c1.89-0.65,3.78-1.27,5.68-1.88c3.86-1.23,7.78-2.33,11.78-2.97c0.29-0.05,0.59-0.09,0.89-0.13
				c-0.04,0.01-0.36,0.05-0.08,0.01c0.18-0.02,0.37-0.05,0.55-0.07c0.56-0.07,1.11-0.12,1.67-0.16c1.16-0.09,2.31-0.13,3.47-0.13
				c1.25,0.01,2.44-1.1,2.38-2.38c-0.06-1.3-1.05-2.37-2.38-2.38c-8.63-0.05-16.97,2.68-25.04,5.43c-2.28,0.78-4.47,1.69-6.26,3.34
				c-0.92,0.85-0.92,2.52,0,3.37C907.88,204.93,909.29,204.93,910.27,204.03L910.27,204.03z"/>
		</g>
		<g>
			<path class="st4" d="M911.67,213.36c1.24,0,2.44-1.09,2.38-2.38c-0.06-1.29-1.05-2.38-2.38-2.38c-1.24,0-2.44,1.09-2.38,2.38
				C909.35,212.27,910.34,213.36,911.67,213.36L911.67,213.36z"/>
		</g>
		<g>
			<path class="st3" d="M912.81,212.9c0.92-0.43,1.86-0.86,2.8-1.25c-0.36,0.15,0.12-0.05,0.24-0.1c0.24-0.1,0.47-0.19,0.71-0.29
				c0.47-0.19,0.95-0.37,1.43-0.55c1.88-0.71,3.78-1.34,5.71-1.89c1.93-0.56,3.88-1.04,5.84-1.44c0.97-0.2,1.93-0.38,2.91-0.54
				c0.47-0.08,0.94-0.15,1.41-0.22c0.25-0.04,0.51-0.07,0.76-0.11c-0.04,0.01-0.37,0.05-0.09,0.01c0.18-0.02,0.36-0.05,0.54-0.07
				c2.25-0.27,4.5-0.44,6.76-0.52c1.24-0.04,2.44-1.06,2.38-2.38c-0.06-1.25-1.05-2.42-2.38-2.38c-8.37,0.28-16.73,1.86-24.59,4.75
				c-2.32,0.85-4.59,1.81-6.83,2.86c-1.13,0.53-1.51,2.24-0.85,3.26C910.3,213.21,911.6,213.47,912.81,212.9L912.81,212.9z"/>
		</g>
		<g>
			<path class="st3" d="M959.48,380.59c0.14-0.13,0.28-0.27,0.42-0.39c0.15-0.13,0.46-0.32,0.12-0.11c0.38-0.24,0.74-0.5,1.14-0.71
				c0.34-0.19,0.69-0.35,1.04-0.51c-0.43,0.19,0.08-0.02,0.24-0.09c0.21-0.08,0.43-0.16,0.65-0.23c1.74-0.58,3.55-0.99,5.35-1.37
				c1.91-0.41,3.83-0.75,5.76-1.02c0.11-0.02,0.23-0.03,0.34-0.05c-0.1,0.01-0.43,0.06,0.05-0.01c0.23-0.03,0.46-0.06,0.68-0.09
				c0.49-0.06,0.99-0.11,1.48-0.17c0.99-0.1,1.98-0.19,2.97-0.25c2.25-0.15,4.51-0.21,6.77-0.18c1.25,0.01,2.44-1.1,2.38-2.38
				c-0.06-1.3-1.05-2.36-2.38-2.38c-4.13-0.05-8.26,0.2-12.36,0.75c-4.07,0.54-8.22,1.22-12.13,2.49c-2.18,0.71-4.24,1.71-5.9,3.32
				c-0.89,0.87-0.94,2.5,0,3.37C957.07,381.47,958.52,381.52,959.48,380.59L959.48,380.59z"/>
		</g>
		<g>
			<path class="st3" d="M963.23,390.32c0.71-0.49,1.45-0.87,2.22-1.24c0.25-0.12-0.07,0.03-0.1,0.04c0.09-0.04,0.19-0.08,0.29-0.11
				c0.19-0.07,0.38-0.15,0.58-0.22c0.42-0.15,0.84-0.29,1.27-0.42c1.76-0.54,3.54-1.01,5.32-1.5c1.88-0.52,3.76-1.06,5.65-1.56
				c0.92-0.24,1.85-0.48,2.78-0.68c0.45-0.1,0.9-0.19,1.35-0.27c0.22-0.04,0.45-0.08,0.67-0.12c0.11-0.02,0.22-0.04,0.34-0.05
				c0.04-0.01,0.5-0.07,0.25-0.04c-0.26,0.03,0.11-0.01,0.13-0.01c0.15-0.02,0.3-0.03,0.45-0.05c0.26-0.03,0.52-0.05,0.79-0.06
				c0.52-0.03,1.05-0.05,1.57-0.04c0.52,0.01,1.05,0.03,1.57,0.08c0.11,0.01,0.22,0.02,0.34,0.03c-0.25-0.02-0.16-0.03,0.04,0.01
				c0.3,0.05,0.59,0.1,0.89,0.17c1.22,0.25,2.63-0.36,2.93-1.66c0.27-1.19-0.36-2.66-1.66-2.93c-4.21-0.88-8.45-0.28-12.58,0.75
				c-3.85,0.96-7.68,2.05-11.49,3.17c-2.08,0.61-4.19,1.37-5.99,2.61c-1.02,0.71-1.59,2.12-0.85,3.26
				C960.63,390.48,962.13,391.08,963.23,390.32L963.23,390.32z"/>
		</g>
		<g>
			<path class="st3" d="M964.61,356.71c1.16-3.52,2.06-7.12,2.69-10.77c-1.53,0-3.06,0-4.59,0c1.11,3.72,2.22,7.43,3.33,11.15
				c0.54,1.82,1.09,3.64,1.63,5.46c0.26,0.87,0.48,1.76,0.79,2.62c0.35,0.98,1.08,1.72,2.13,1.86c1.01,0.14,2.04-0.35,2.52-1.26
				c0.39-0.74,0.46-1.67,0-2.4c-0.02-0.02-0.03-0.05-0.05-0.07c-0.67-1.05-2.15-1.57-3.26-0.85c-1.05,0.68-1.57,2.13-0.85,3.26
				c0.02,0.02,0.03,0.05,0.05,0.07c0-0.8,0-1.6,0-2.4c-0.02,0.03-0.03,0.06-0.05,0.09c0.47-0.36,0.95-0.73,1.42-1.09
				c-0.03,0.01-0.07,0.02-0.1,0.03c0.61,0.08,1.22,0.16,1.83,0.24c-0.03-0.02-0.06-0.04-0.09-0.06c0.28,0.28,0.57,0.57,0.85,0.85
				c0.14,0.4,0.18,0.48,0.1,0.24c-0.03-0.11-0.07-0.23-0.1-0.34c-0.06-0.19-0.11-0.38-0.17-0.57c-0.12-0.42-0.25-0.83-0.37-1.25
				c-0.23-0.76-0.45-1.52-0.68-2.28c-0.49-1.63-0.97-3.26-1.46-4.89c-0.96-3.22-1.93-6.45-2.89-9.67c-0.29-0.97-1.24-1.79-2.29-1.75
				c-0.98,0.04-2.11,0.7-2.3,1.75c-0.63,3.65-1.53,7.25-2.69,10.77c-0.39,1.18,0.45,2.65,1.66,2.93
				C962.99,358.67,964.19,357.98,964.61,356.71L964.61,356.71z"/>
		</g>
	</g>
	<path class="st3" d="M842.18,400.47v-60.47H610.36c0,0-8.08,10.25-8.08,30.24c0,22.12,8.08,30.24,8.08,30.24H842.18z"/>
	<path class="st4" d="M602.28,370.02c0-2.66,0.15-5.15,0.4-7.47c1.62,16.02,7.68,22.13,7.68,22.13h231.83v15.58H610.36
		C610.36,400.26,602.28,392.14,602.28,370.02z"/>
	<path class="st5" d="M787.81,392.32c-2.44,0.18-4.91,0.04-7.32-0.4c-0.52-9.94-0.13-43.14-0.13-43.14s1.04-0.92,8.26,0
		C785.75,352.86,785.38,392.49,787.81,392.32z"/>
	<path class="st5" d="M799.21,393.02c-2.44,0.18-4.91,0.04-7.32-0.4c-0.52-9.94-0.13-43.14-0.13-43.14s1.04-0.93,8.26,0
		C797.15,353.56,796.79,393.19,799.21,393.02z"/>
	<path class="st5" d="M835.11,351.8c-1.61,12.79-3.16,26.12,1.04,38.31c-9.93,0-19.86-0.01-29.79-0.01c-0.32,0-0.65,0-0.93-0.15
		c-0.32-0.17-0.52-0.51-0.68-0.83c-1.8-3.53-1.87-7.67-1.83-11.64c0.05-4.56,0.18-9.12,0.41-13.67c0.2-4.03-0.22-9.23,1.06-13.01
		C806.97,351.13,834.99,352.79,835.11,351.8z"/>
	<path class="st6" d="M613.81,347.94c4.94-2.02,10.53-1,15.82-0.28c21.47,2.95,43.33,0.63,64.92,2.48c2.02,0.17,4.61,0.98,4.61,3
		c0,2.18-2.93,2.85-5.11,2.85c-20.84-0.07-41.67,0.63-62.46,2.1c-3.87,0.27-8.21,0.81-10.63,3.84c-2.14,2.68-2.86,7.21-6.25,7.68
		c-3.88,0.53-7.07-6.04-7.57-9.26C606.36,355.37,609.11,349.86,613.81,347.94z"/>
	<path class="st6" d="M708.18,350.73c3.2-1.73,7.11-0.94,10.68-0.29c8.81,1.6,17.83,2.06,26.76,1.37c1.48-0.11,3-0.26,4.43,0.16
		c1.42,0.42,2.75,1.56,2.9,3.04c0.16,1.53-1,2.95-2.39,3.6c-1.39,0.65-2.98,0.7-4.51,0.74c-9.51,0.22-19.02,0.23-28.53,0.04
		c-2.15-0.04-4.33-0.1-6.37-0.76C707.89,357.6,703.48,353.27,708.18,350.73z"/>
	<path class="st7" d="M842.08,340.29v-48.34H661.8c0,0-6.28,8.2-6.28,24.17c0,17.68,6.28,24.17,6.28,24.17H842.08z"/>
	<path class="st8" d="M655.52,315.95c0-2.13,0.11-4.12,0.31-5.97c1.26,12.81,5.97,17.69,5.97,17.69h180.28v12.45H661.8
		C661.8,340.12,655.52,333.63,655.52,315.95z"/>
	<path class="st6" d="M664.49,298.3c3.84-1.61,8.18-0.8,12.3-0.22c16.69,2.36,33.7,0.5,50.49,1.98c1.57,0.14,3.58,0.78,3.58,2.4
		c0,1.74-2.28,2.28-3.97,2.28c-16.2-0.06-32.41,0.5-48.57,1.68c-3.01,0.22-6.38,0.64-8.27,3.07c-1.66,2.14-2.22,5.77-4.86,6.14
		c-3.02,0.42-5.49-4.83-5.89-7.4C658.69,304.24,660.83,299.83,664.49,298.3z"/>
	<path class="st6" d="M737.88,300.53c2.49-1.38,5.53-0.75,8.31-0.23c6.85,1.28,13.87,1.65,20.81,1.1c1.15-0.09,2.34-0.21,3.44,0.13
		c1.11,0.34,2.14,1.25,2.26,2.43c0.12,1.22-0.77,2.36-1.86,2.88c-1.08,0.52-2.32,0.56-3.51,0.59c-7.39,0.17-14.79,0.18-22.18,0.03
		c-1.67-0.03-3.37-0.08-4.96-0.61C737.65,306.02,734.22,302.56,737.88,300.53z"/>
	<path class="st11" d="M842.08,292.24V243.9H626.45c0,0-7.51,8.2-7.51,24.17c0,17.68,7.51,24.17,7.51,24.17H842.08z"/>
	<path class="st10" d="M618.94,267.9c0-2.13,0.14-4.12,0.37-5.97c1.5,12.81,7.14,17.69,7.14,17.69h215.63v12.45H626.45
		C626.45,292.07,618.94,285.58,618.94,267.9z"/>
	<rect x="597" y="400.47" class="st12" width="758" height="42.38"/>
	<path class="st1" d="M902.3,401.35h-60.47V211.87c0,0,10.25-6.6,30.24-6.6c22.12,0,30.24,6.6,30.24,6.6V401.35z"/>
	<path class="st0" d="M872.06,205.27c-2.93,0-5.65,0.15-8.16,0.39c15.47,1.41,21.39,6.21,21.39,6.21v189.48h17.01V211.87
		C902.3,211.87,894.18,205.27,872.06,205.27z"/>
	<path class="st3" d="M902.3,230.71c-10.15-4.04-21.64-4.29-32.64-3.41c-8.88,0.71-17.81,2.1-26.18,5.26
		c-0.57,0.21-1.12,0.42-1.66,0.62v9.67c2.27-1.3,4.68-2.37,7.11-3.3c14.89-5.7,31.49-6.86,47.03-3.3c2.13,0.49,4.32,1.13,6.33,2.03
		V230.71z"/>
	<path class="st4" d="M902.3,238.25v-7.57c-5.39-2.14-11.15-3.21-17.01-3.62v7.47c3.59,0.32,7.16,0.88,10.68,1.69
		C898.1,236.71,900.28,237.35,902.3,238.25z"/>
	<path class="st7" d="M902.23,254.36v-7.57c-5.38-2.14-11.15-3.21-17.01-3.62v7.47c3.59,0.32,7.16,0.88,10.68,1.69
		C898.03,252.81,900.21,253.45,902.23,254.36z"/>
	<path class="st3" d="M902.3,246.67c-10.15-4.04-21.64-4.29-32.64-3.41c-8.88,0.71-17.81,2.1-26.18,5.26
		c-0.57,0.21-1.12,0.42-1.66,0.62v9.67c2.27-1.3,4.68-2.37,7.11-3.3c14.89-5.7,31.49-6.86,47.03-3.3c2.13,0.49,4.32,1.13,6.33,2.03
		V246.67z"/>
	<path class="st4" d="M902.23,254.36v-7.57c-5.38-2.14-11.15-3.21-17.01-3.62v7.47c3.59,0.32,7.16,0.88,10.68,1.69
		C898.03,252.81,900.21,253.45,902.23,254.36z"/>
	<path class="st3" d="M893.92,391.05h-40.95v-38.49c0,0,12.06-2.15,20.48-2.18c9.66-0.04,20.48,2.18,20.48,2.18V391.05z"/>
	<path class="st4" d="M893.92,352.7c0,0-3.86-0.79-9.02-1.42c0.04,0.2,0.07,0.41,0.1,0.6c0.75,5.23-0.07,10.59-1.84,15.54
		c-1.02,2.83-2.36,5.55-3.95,8.1c-1.49,2.38-3.19,4.64-5.22,6.57c-5.58,5.3-13.27,7.7-21.01,8.38v0.72h40.95V352.7z"/>
	<path class="st2" d="M850,218.22c-0.76,2.93,0.06,6,0.72,8.96c5.36,24.12-0.39,49.34,2.12,73.93c0.12,1.21,0.72,2.8,1.92,2.62
		c1.01-0.15,1.33-1.43,1.41-2.44c1.99-25.9-3-52.4,2.89-77.7c0.62-2.68,1.79-8.24-1.33-9.98C854.65,211.87,850.73,215.39,850,218.22
		z"/>
	<path class="st2" d="M853.39,310.72c0.25,5.76,0.5,11.51,0.75,17.26c0.05,1.12,0.11,2.28,0.59,3.29c0.48,1.01,1.5,1.85,2.62,1.77
		c0.34-0.03,0.69-0.15,0.92-0.4c0.36-0.39,0.36-0.99,0.34-1.52c-0.22-5.41-0.43-10.82-0.65-16.23c-0.07-1.75,0.56-5.83-1.13-7
		C854.72,306.43,853.31,308.84,853.39,310.72z"/>
	<g>
		<path class="st3" d="M791.44,251.68c-0.97,9.12-1.47,18.29-1.45,27.45c0.01,2.47,0.1,5.03,1,7.36c0.45,1.16,1.62,2.09,2.93,1.66
			c1.13-0.36,2.14-1.68,1.66-2.93c-0.18-0.46-0.33-0.93-0.45-1.42c-0.06-0.24-0.11-0.48-0.15-0.73c-0.02-0.1-0.04-0.21-0.05-0.31
			c-0.12-0.66,0.02,0.28-0.02-0.11c-0.08-1.04-0.15-2.06-0.15-3.1c-0.01-2.21,0.02-4.43,0.07-6.64c0.1-4.51,0.33-9.01,0.67-13.51
			c0.2-2.58,0.43-5.16,0.71-7.73c0.13-1.24-1.19-2.43-2.38-2.38C792.42,249.36,791.59,250.35,791.44,251.68L791.44,251.68z"/>
	</g>
	<g>
		<path class="st3" d="M800.43,251.7c-0.81,10.17-1.2,20.36-1.17,30.56c0,0.71,0.01,1.42,0.01,2.13c0.01,0.89-0.04,1.8,0.43,2.61
			c0.72,1.22,2.33,1.68,3.57,0.96c1.22-0.71,1.68-2.32,0.94-3.55c-0.65-1.06-2.16-1.56-3.26-0.85c-1.07,0.69-1.55,2.12-0.85,3.26
			c0.02,0.03,0.03,0.06,0.05,0.08c-0.08-0.61-0.16-1.22-0.24-1.83c0.05-0.13,0.1-0.26,0.16-0.39c0.28-0.28,0.57-0.57,0.85-0.85
			c-0.03,0.02-0.07,0.04-0.1,0.05c0.4-0.11,0.8-0.22,1.2-0.33c-0.04,0-0.07,0-0.11,0c0.4,0.11,0.8,0.22,1.2,0.32
			c-0.04-0.02-0.08-0.05-0.11-0.07c0.28,0.28,0.57,0.57,0.85,0.85c0.06,0.09,0.15,1.26,0.18,0.57c0.01-0.12,0-0.24,0-0.35
			c0-0.28-0.01-0.55-0.01-0.83c0-0.55-0.01-1.1-0.01-1.65c0-1.1,0-2.2,0-3.31c0.01-2.2,0.04-4.41,0.09-6.61
			c0.1-4.41,0.28-8.82,0.55-13.22c0.15-2.52,0.33-5.03,0.53-7.54c0.1-1.24-1.17-2.43-2.38-2.38
			C801.44,249.38,800.54,250.36,800.43,251.7L800.43,251.7z"/>
	</g>
	<g>
		<path class="st3" d="M829.32,251.99c-0.36,9.2-0.23,18.43,0.42,27.61c0.18,2.59,0.4,5.18,0.67,7.76c0.12,1.24,1.01,2.44,2.38,2.38
			c1.18-0.05,2.51-1.05,2.38-2.38c-0.92-9.16-1.35-18.38-1.27-27.59c0.02-2.6,0.09-5.19,0.19-7.79c0.05-1.25-1.13-2.44-2.38-2.38
			C830.37,249.67,829.38,250.66,829.32,251.99L829.32,251.99z"/>
	</g>
	<g>
		<path class="st3" d="M641.55,254.42c-2.68,1.26-3.17,4.8-3.29,7.42c-0.13,2.84,0.6,5.7,2.55,7.84c1.74,1.9,4.29,2.93,6.75,3.51
			c2.82,0.66,5.77,0.98,8.66,1.15c5.02,0.29,11.36,0.27,14.8-4.07c1.67-2.11,2.46-4.83,2.18-7.51c-0.29-2.7-1.43-5.13-3.32-7.09
			c-4.66-4.85-11.79-5.28-17.99-3.91c-1.22,0.27-2.04,1.75-1.66,2.93c0.41,1.28,1.62,1.95,2.93,1.66c0.62-0.14,1.23-0.26,1.86-0.35
			c0.07-0.01,0.53-0.08,0.23-0.04c-0.29,0.04,0.17-0.02,0.24-0.03c0.33-0.04,0.66-0.07,1-0.09c0.63-0.04,1.26-0.06,1.88-0.05
			c0.29,0.01,0.59,0.02,0.88,0.04c0.15,0.01,0.29,0.02,0.44,0.04c0.19,0.02,0.49,0.05,0.13,0.01c1.14,0.15,2.23,0.45,3.3,0.85
			c0.47,0.17-0.06-0.04-0.07-0.03c0.03-0.01,0.27,0.12,0.33,0.15c0.24,0.11,0.48,0.24,0.72,0.37c0.45,0.24,0.87,0.52,1.29,0.81
			c0.37,0.25,0-0.03-0.05-0.05c0.09,0.04,0.2,0.16,0.28,0.22c0.2,0.17,0.4,0.35,0.59,0.53c0.17,0.16,0.34,0.33,0.49,0.51
			c0.08,0.09,0.16,0.18,0.23,0.26c0.24,0.28,0.2,0.08,0.02,0c0.14,0.06,0.32,0.45,0.41,0.58c0.15,0.22,0.28,0.45,0.41,0.69
			c0.06,0.1,0.11,0.21,0.16,0.32c0.04,0.07,0.21,0.41,0.06,0.11c-0.15-0.3,0.01,0.03,0.04,0.12c0.05,0.13,0.1,0.27,0.14,0.41
			c0.07,0.22,0.13,0.44,0.18,0.67c0.03,0.14,0.06,0.28,0.09,0.42c0.02,0.09,0.06,0.46,0.02,0.11c-0.04-0.37,0.02,0.37,0.03,0.46
			c0.01,0.26,0.01,0.52,0,0.78c-0.01,0.2,0.02,0.49-0.06,0.69c0.19-0.51,0.03-0.23-0.01-0.04c-0.02,0.11-0.05,0.22-0.07,0.33
			c-0.05,0.22-0.11,0.44-0.18,0.66c-0.04,0.11-0.08,0.21-0.11,0.32c-0.09,0.28,0.21-0.42,0.01-0.02c-0.1,0.2-0.2,0.41-0.31,0.6
			c-0.07,0.12-0.15,0.24-0.23,0.36c-0.05,0.07-0.24,0.38-0.06,0.1c0.18-0.27-0.02,0.02-0.08,0.09c-0.07,0.09-0.15,0.17-0.23,0.25
			c-0.19,0.2-0.39,0.37-0.59,0.55c-0.38,0.33,0.06-0.05,0.06-0.04c0,0.02-0.25,0.17-0.29,0.2c-0.22,0.15-0.45,0.28-0.69,0.4
			c-0.1,0.06-0.21,0.11-0.32,0.16c-0.07,0.04-0.43,0.19-0.12,0.06c0.31-0.13-0.06,0.02-0.13,0.05c-0.14,0.05-0.28,0.1-0.42,0.15
			c-0.49,0.16-0.99,0.28-1.5,0.38c-0.24,0.05-0.48,0.08-0.73,0.13c-0.35,0.06,0.43-0.04,0.08-0.01c-0.15,0.01-0.31,0.03-0.46,0.05
			c-1.09,0.1-2.18,0.12-3.27,0.11c-1.32-0.02-2.63-0.08-3.94-0.19c-0.66-0.05-1.31-0.12-1.96-0.2c-0.15-0.02-0.31-0.04-0.46-0.06
			c-0.4-0.04,0.34,0.05-0.06-0.01c-0.34-0.05-0.69-0.1-1.03-0.15c-1.07-0.17-2.14-0.36-3.18-0.65c-0.49-0.13-0.97-0.28-1.45-0.46
			c-0.11-0.04-0.22-0.09-0.33-0.13c-0.31-0.12,0.38,0.18,0.08,0.03c-0.23-0.12-0.47-0.23-0.7-0.35c-0.25-0.14-0.5-0.29-0.74-0.45
			c-0.08-0.05-0.21-0.13-0.28-0.2c0.4,0.43,0.05,0.02-0.05-0.06c-0.19-0.17-0.37-0.36-0.55-0.55c-0.05-0.06-0.3-0.35-0.09-0.09
			c0.22,0.27-0.14-0.21-0.18-0.28c-0.12-0.19-0.38-0.52-0.41-0.75c0.05,0.39,0.08,0.21,0.02,0.05c-0.06-0.18-0.12-0.36-0.18-0.54
			c-0.08-0.27-0.14-0.55-0.19-0.83c-0.03-0.15-0.16-0.54-0.01-0.03c-0.04-0.15-0.03-0.33-0.04-0.48c-0.04-0.61-0.03-1.23,0.01-1.84
			c0.01-0.13,0.02-0.26,0.03-0.39c0.01-0.13,0.08-0.73,0.01-0.14c0.03-0.27,0.08-0.55,0.13-0.81c0.05-0.25,0.1-0.49,0.17-0.73
			c0.03-0.11,0.07-0.21,0.1-0.32c0.14-0.51-0.25,0.41,0.01-0.04c0.05-0.09,0.11-0.19,0.16-0.28c0.12-0.17,0.12-0.18,0-0.02
			c-0.13,0.15-0.12,0.15,0.01,0c0.28-0.11-0.15-0.28-0.13,0.06c0-0.06,0.38-0.22,0.42-0.23c1.13-0.53,1.51-2.24,0.85-3.26
			C644.06,254.11,642.76,253.85,641.55,254.42L641.55,254.42z"/>
	</g>
	<path class="st6" d="M629.67,250.25c4.6-1.61,9.79-0.8,14.71-0.22c19.97,2.36,40.3,0.5,60.39,1.98c1.87,0.14,4.28,0.78,4.29,2.4
		c0,1.74-2.72,2.28-4.75,2.28c-19.38-0.06-38.76,0.5-58.09,1.68c-3.6,0.22-7.63,0.64-9.89,3.07c-1.99,2.14-2.66,5.77-5.81,6.14
		c-3.61,0.42-6.57-4.83-7.04-7.4C622.73,256.19,625.29,251.79,629.67,250.25z"/>
	<path class="st6" d="M717.44,252.48c2.98-1.38,6.61-0.75,9.94-0.23c8.2,1.28,16.58,1.65,24.89,1.1c1.38-0.09,2.79-0.21,4.12,0.13
		c1.33,0.34,2.56,1.25,2.7,2.43c0.15,1.22-0.93,2.36-2.22,2.88c-1.29,0.52-2.77,0.56-4.2,0.59c-8.84,0.17-17.69,0.18-26.53,0.03
		c-2-0.03-4.03-0.08-5.93-0.61C717.17,257.97,713.07,254.51,717.44,252.48z"/>
	<g>
		<path class="st5" d="M671.51,370.14c-2.56,4.7-11.45,7.68-21.62,7.24c-5.74-0.24-11.1-1.53-15.1-3.61
			c-4.23-2.2-6.48-5.08-6.36-8.09c0.04-0.89,0.29-1.77,0.74-2.61c2.56-4.7,11.45-7.67,21.62-7.24c5.74,0.24,11.1,1.52,15.1,3.61
			c4.23,2.2,6.48,5.08,6.36,8.09C672.22,368.43,671.97,369.31,671.51,370.14z M630.85,363.99c-0.31,0.58-0.49,1.18-0.51,1.78
			c-0.09,2.2,1.85,4.51,5.33,6.32c3.76,1.96,8.84,3.17,14.3,3.4c9.33,0.39,17.68-2.24,19.87-6.25c0.31-0.58,0.49-1.18,0.51-1.78
			c0.09-2.2-1.85-4.51-5.33-6.32c-3.76-1.96-8.84-3.17-14.3-3.4C641.39,357.34,633.03,359.97,630.85,363.99z"/>
	</g>
	<g>
		<path class="st4" d="M1289.02,346.46c1.47-1.12,3.29-1.26,5.08-1.27c2.23-0.01,4.46,0.05,6.69,0.08
			c4.51,0.06,9.06-0.03,13.56,0.25c2.31,0.14,4.68,0.48,6.83,1.39c0.59,0.25,1.27,0.18,1.63-0.43c0.29-0.5,0.17-1.38-0.43-1.63
			c-4.28-1.81-8.92-1.79-13.49-1.86c-4.83-0.07-9.67-0.18-14.51-0.19c-2.26-0.01-4.7,0.18-6.57,1.6c-0.51,0.39-0.78,1.03-0.43,1.63
			C1287.68,346.54,1288.5,346.85,1289.02,346.46L1289.02,346.46z"/>
	</g>
	<g>
		<path class="st4" d="M1286.45,395.22c4.51-1.56,9.1-3.18,13.86-3.77c4.74-0.58,9.5-0.06,14.12,1.05c2.67,0.64,5.29,1.46,7.88,2.36
			c0.61,0.21,1.3-0.24,1.46-0.83c0.18-0.65-0.22-1.25-0.83-1.46c-4.71-1.63-9.52-2.98-14.48-3.52c-4.98-0.54-9.9,0.02-14.72,1.33
			c-2.68,0.73-5.3,1.63-7.93,2.54c-0.61,0.21-1.01,0.82-0.83,1.46C1285.15,394.98,1285.84,395.43,1286.45,395.22L1286.45,395.22z"/>
	</g>
	<g>
		<path class="st4" d="M1296.68,356.6c0.38-1.04,1.69-1.44,2.7-1.63c1.31-0.24,2.76-0.14,4.04,0.22c1.27,0.36,2.42,1.07,3.11,2.23
			c0.61,1.02,0.86,2.31,0.62,3.48c-0.47,2.24-2.39,3.55-4.22,4.69c-1.97,1.23-4.14,2.36-5.6,4.21c-1.09,1.38-1.55,2.92-1.74,4.65
			c-0.23,2.12-0.35,4.26-0.52,6.38c-0.05,0.64,0.59,1.19,1.19,1.19c4.76,0.02,9.51,0.04,14.27,0.06c1.53,0.01,1.53-2.37,0-2.38
			c-4.76-0.02-9.51-0.04-14.27-0.06c0.4,0.4,0.79,0.79,1.19,1.19c0.16-2.02,0.29-4.05,0.49-6.07c0.13-1.4,0.51-2.67,1.38-3.66
			c1.64-1.86,4.05-2.87,6.09-4.31c2.34-1.65,4.26-3.91,4.2-6.93c-0.06-3.48-2.5-6.22-5.83-7.05c-3.21-0.8-8.06-0.48-9.39,3.14
			c-0.22,0.6,0.25,1.3,0.83,1.46C1295.88,357.61,1296.46,357.2,1296.68,356.6L1296.68,356.6z"/>
	</g>
	<path class="st13" d="M843.44,646.61l-24.99-32.49l-143.61,2.8c0,0-4.6,0.08-10.69,10.95c-4.28,7.64-6.61,34.38-6.61,34.38
		L843.44,646.61L843.44,646.61z"/>
	<path class="st1" d="M838.58,620.96l-23.36-35.24h-87.83c0,0-4.68,0.47-6.79,2.81c-2.11,2.34-8.62,42.23-8.62,42.23l0,0
		L838.58,620.96L838.58,620.96z"/>
	<polygon class="st14" points="473.53,714.78 64.23,714.78 118.63,672 473.53,672 828.43,672 882.83,714.78 	"/>
	<rect x="64.23" y="714.78" class="st12" width="818.61" height="42.38"/>
	<g>
		<path class="st0" d="M197,528.45c0,0,5.2,29.57,6.32,31.17c1.11,1.6-30.02,127.35-30.02,127.35l-26.94,24.07L197,528.45z"/>
		<path class="st1" d="M88.09,694.88c0,0,9.04,11.88,22.81,14.46c19.83,3.71,35.46,1.7,35.46,1.7L197,528.45
			c0,0-8.12-9.1-27.37-14.44c-21.31-5.91-30.9-1.72-30.9-1.72L88.09,694.88z"/>
		<path class="st0" d="M169.63,514.01c2.83,0.78,5.41,1.65,7.76,2.56c-15.29-2.78-22.27,0.27-22.27,0.27l-53.79,189.04l-13.23-11
			l50.64-182.59C138.73,512.29,148.31,508.1,169.63,514.01z"/>
		<path class="st3" d="M133.69,530.45c10.86-1.18,22,1.65,32.36,5.44c8.37,3.06,16.6,6.79,23.82,12.07c0.49,0.36,0.97,0.7,1.43,1.04
			l-2.58,9.32c-1.84-1.85-3.88-3.53-5.97-5.08c-12.83-9.47-28.51-15.03-44.43-15.75c-2.18-0.1-4.46-0.07-6.65,0.27L133.69,530.45z"
			/>
		<path class="st4" d="M131.67,537.72l2.02-7.3c5.76-0.63,11.6-0.12,17.36,1.06l-2,7.2c-3.55-0.65-7.14-1.06-10.74-1.23
			C136.14,537.35,133.86,537.38,131.67,537.72z"/>
		<path class="st15" d="M127.44,553.26l2.02-7.3c5.76-0.63,11.6-0.12,17.36,1.06l-2,7.2c-3.55-0.65-7.14-1.06-10.74-1.23
			C131.9,552.89,129.62,552.92,127.44,553.26z"/>
		<path class="st3" d="M129.42,545.83c10.86-1.18,22,1.65,32.36,5.44c8.37,3.06,16.6,6.79,23.82,12.07c0.49,0.36,0.97,0.7,1.43,1.04
			l-2.58,9.32c-1.84-1.85-3.88-3.53-5.97-5.08c-12.83-9.47-28.51-15.03-44.43-15.75c-2.18-0.1-4.46-0.07-6.65,0.27L129.42,545.83z"
			/>
		<path class="st4" d="M127.44,553.26l2.02-7.3c5.76-0.63,11.6-0.12,17.36,1.06l-2,7.2c-3.55-0.65-7.14-1.06-10.74-1.23
			C131.9,552.89,129.62,552.92,127.44,553.26z"/>
		<path class="st3" d="M98.92,687.2l39.46,10.94l10.29-37.09c0,0-11.05-5.29-19.15-7.58c-9.29-2.62-20.32-3.37-20.32-3.37
			L98.92,687.2z"/>
		<path class="st4" d="M109.17,650.24c0,0,3.93,0.27,9.07,1.04c-0.09,0.19-0.18,0.37-0.26,0.56c-2.12,4.84-2.77,10.23-2.37,15.46
			c0.22,3,0.79,5.98,1.65,8.86c0.8,2.69,1.83,5.32,3.28,7.72c3.97,6.6,10.73,10.96,18.01,13.69l-0.19,0.7l-39.46-10.94
			L109.17,650.24z"/>
		<path class="st2" d="M187.43,532.39c-0.05,3.03-1.67,5.77-3.09,8.44c-11.61,21.81-12.81,47.65-21.8,70.67
			c-0.44,1.14-1.44,2.51-2.55,2.01c-0.93-0.41-0.9-1.73-0.7-2.73c5-25.49,16.9-49.69,17.98-75.65c0.12-2.75,0.48-8.42,3.95-9.27
			C184.65,525.03,187.48,529.46,187.43,532.39z"/>
		<path class="st2" d="M159.44,620.62c-1.78,5.48-3.56,10.96-5.33,16.44c-0.35,1.07-0.71,2.16-1.44,3.01c-0.73,0.85-1.95,1.39-3,1
			c-0.32-0.12-0.63-0.33-0.78-0.63c-0.24-0.48-0.09-1.05,0.08-1.56c1.65-5.16,3.31-10.31,4.96-15.47c0.53-1.67,1.02-5.77,2.96-6.44
			C159.31,616.13,160.02,618.83,159.44,620.62z"/>
		<polygon class="st16" points="146.36,711.04 203,702 197,683 174.86,682.06 		"/>
	</g>
	<path class="st17" d="M819.07,677.84c0.51-1.76,1.02-3.53,1.53-5.29c0.09-0.32,0.18-0.68,0.02-0.97c-0.13-0.23-0.38-0.36-0.61-0.47
		c-8.9-4.23-18.78-6.35-28.63-6.14c-0.27,0.01-0.56,0.02-0.77,0.19c-0.21,0.17-0.28,0.45-0.34,0.71c-0.44,1.88-1.06,3.81-1.24,5.72
		c1.53,0.33,4.08-0.64,5.88-0.58c2.85,0.09,5.68,0.56,8.45,1.23C804.75,672.58,819.29,677.1,819.07,677.84z"/>
	<path class="st17" d="M822.36,667.56c0.51-1.76,1.02-3.53,1.53-5.29c0.09-0.32,0.18-0.68,0.02-0.97c-0.13-0.23-0.38-0.36-0.61-0.47
		c-8.9-4.23-18.78-6.35-28.63-6.14c-0.27,0.01-0.56,0.02-0.77,0.19c-0.21,0.17-0.28,0.45-0.34,0.71c-0.44,1.88-1.06,3.81-1.24,5.72
		c1.53,0.33,4.08-0.64,5.88-0.58c2.85,0.09,5.68,0.56,8.45,1.23C808.03,662.3,822.57,666.83,822.36,667.56z"/>
	<path class="st11" d="M843.44,708.49H669.01c0,0-14.03-5.94-13.89-30.55c0.14-24.75,14.39-31.33,14.39-31.33h173.93v10.48H825.2
		l0.17,41.53h18.07V708.49z"/>
	<path class="st18" d="M840.45,698.61H673.1c0,0-10.05-3.98-9.92-20.5c0.13-16.61,9.92-21.03,9.92-21.03h167.35
		c0,0-6.07,7.88-6.54,21.56C833.57,688.56,840.45,698.61,840.45,698.61z"/>
	<polygon class="st19" points="668.49,666.76 835.88,666.76 835.04,669.94 	"/>
	<polygon class="st19" points="666.55,679.96 833.94,679.96 834.21,683.16 	"/>
	<polygon class="st19" points="668.12,686.57 834.96,686.57 835.88,689.47 	"/>
	<path class="st0" d="M404.12,684.07c-0.25,5.46-0.45,11.17,2.1,16.13c-3.02,0.15-5.92-1.42-7.81-3.55
		c-1.9-2.13-2.93-4.78-3.74-7.42c-1.84-6.03-2.61-12.51-0.72-18.53c1.66-5.28,7.11-12.89,13.89-13.23
		C404.17,665.6,404.52,675.26,404.12,684.07z"/>
	<path class="st0" d="M838.58,646.96H720.96c0,0-9.46-2.49-9.37-12.83c0.09-10.4,9.71-13.16,9.71-13.16h117.28v4.4h-12.3l0.11,17.45
		h12.19V646.96z"/>
	<path class="st18" d="M836.56,642.81H723.71c0,0-6.78-1.67-6.69-8.61c0.09-6.98,6.69-8.83,6.69-8.83h112.85
		c0,0-4.09,3.31-4.41,9.06C831.92,638.59,836.56,642.81,836.56,642.81z"/>
	<polygon class="st19" points="720.6,629.43 833.48,629.43 832.91,630.76 	"/>
	<polygon class="st19" points="719.3,634.98 832.17,634.98 832.35,636.32 	"/>
	<polygon class="st19" points="720.35,637.75 832.86,637.75 833.48,638.97 	"/>
	<path class="st0" d="M455.38,637.28c-0.17,2.29-0.3,4.69,1.41,6.77c-2.04,0.06-3.99-0.6-5.27-1.49c-1.28-0.9-1.98-2.01-2.52-3.12
		c-1.24-2.53-1.76-5.26-0.48-7.79c1.12-2.22,4.79-5.41,9.37-5.56C455.41,629.52,455.65,633.58,455.38,637.28z"/>
	<path class="st5" d="M801.89,725.65c-0.05-5.89,0.55-11.77,0.41-17.65c-0.23-9.81-0.73-19.98-9.07-27.92l-22.73-0.18
		c4.51,2.27,6.56,7.58,7.46,12.55c1.56,8.68,0.78,17.58,0.93,26.39c0.15,8.81,1.39,18.01,6.41,25.26
		c0.94-5.68,3.02-11.17,6.09-16.05c2.09,6.69,7.39,12.3,13.96,14.76C802.69,737.55,801.94,731.53,801.89,725.65z"/>
	<path class="st7" d="M245.75,699.29c0,0-8.95,4.67-23.4,4.67c-19.88,0-27.86-4.67-27.86-4.67V460.2c0,0,8.69-4.6,25.63-4.6
		c18.75,0,25.63,4.6,25.63,4.6V699.29z"/>
	<path class="st8" d="M220.12,455.6c-0.37,0-0.73,0.01-1.09,0.01c8.24,1.36,11.53,3.56,11.53,3.56v239.09c0,0-8.85,4.62-23.17,4.67
		c3.96,0.6,8.9,1.04,14.95,1.04c14.46,0,23.4-4.67,23.4-4.67V460.2C245.75,460.2,238.87,455.6,220.12,455.6z"/>
	<path class="st6" d="M227,678.92c0,4.77-4.39,8.63-9.8,8.63c-5.41,0-9.8-3.87-9.8-8.63c0-4.77,4.39-8.63,9.8-8.63
		C222.61,670.29,227,674.16,227,678.92z"/>
	<rect x="212.96" y="469.79" class="st6" width="8.77" height="141.93"/>
	<rect x="212.96" y="620.48" class="st6" width="8.77" height="22.1"/>
	<path class="st3" d="M647.61,703.77c0,0-11.91,3.39-31.15,3.39c-26.45,0-37.07-3.39-37.07-3.39V530.43c0,0,11.57-3.34,34.11-3.34
		c24.95,0,34.11,3.34,34.11,3.34V703.77z"/>
	<path class="st4" d="M613.5,527.09c-0.49,0-0.97,0-1.44,0.01c10.96,0.98,15.35,2.58,15.35,2.58v173.35c0,0-11.78,3.35-30.83,3.38
		c5.27,0.44,11.84,0.75,19.9,0.75c19.24,0,31.15-3.39,31.15-3.39V530.43C647.61,530.43,638.46,527.09,613.5,527.09z"/>
	<g>
		<path class="st5" d="M585.25,668.3c7.91,0.94,15.81,2.04,23.75,2.71c7.31,0.62,14.73,0.77,21.97-0.63
			c4.05-0.78,7.98-2.09,11.65-3.98c1.36-0.7,0.16-2.76-1.2-2.06c-6.33,3.26-13.43,4.51-20.49,4.7c-7.27,0.2-14.53-0.61-21.74-1.47
			c-4.65-0.55-9.29-1.11-13.94-1.66c-0.64-0.08-1.19,0.6-1.19,1.19C584.06,667.82,584.61,668.22,585.25,668.3L585.25,668.3z"/>
	</g>
	<g>
		<path class="st5" d="M586.18,678.98c13.94,3.75,28.67,4.3,42.86,1.67c4.01-0.74,7.97-1.75,11.85-3c1.45-0.47,0.83-2.77-0.63-2.29
			c-13.39,4.32-27.73,5.6-41.68,3.71c-3.97-0.54-7.9-1.34-11.77-2.39C585.33,676.29,584.7,678.59,586.18,678.98L586.18,678.98z"/>
	</g>
	<path class="st5" d="M634.41,553.39c0,5.4-7.91,9.77-17.68,9.77c-9.76,0-17.68-4.37-17.68-9.77c0-5.39,7.91-9.77,17.68-9.77
		C626.49,543.62,634.41,547.99,634.41,553.39z"/>
	<path class="st20" d="M584.46,541.42c-0.64,4.57,1.02,9.1,2.18,13.56c4.54,17.55,1.38,36.05,1.52,54.18
		c0.02,3.05,0.14,6.13,0.96,9.06c0.43,1.54,1.37,3.28,2.97,3.37c2.29,0.12,3.11-2.95,3.15-5.24c0.25-12.97,0.5-25.93,0.76-38.9
		c0.14-7.12,0.32-14.43,3.06-21c1.45-3.48,3.59-6.65,4.93-10.18c1.34-3.53,1.77-7.69-0.16-10.93
		C599.16,527.53,585.51,533.87,584.46,541.42z"/>
	<path class="st20" d="M589.65,628.98c-0.71,1.46-0.55,3.17-0.38,4.79c0.39,3.7,0.79,7.41,1.18,11.11c0.18,1.67,0.55,3.62,2.07,4.33
		c1.61,0.75,3.56-0.52,4.26-2.15c0.7-1.63,0.53-3.48,0.48-5.26c-0.07-2.35,0.1-4.7,0.49-7.01c0.31-1.83,0.76-3.74,0.16-5.49
		C596.8,626.11,591.07,626.07,589.65,628.98z"/>
	<g>
		<path class="st3" d="M982.66,224.12l-2.56,0.76c-0.69,0.21-1.29,0.3-1.82,0.3c-0.52-0.01-0.98-0.12-1.38-0.32
			c-0.4-0.21-0.77-0.51-1.11-0.91c-0.34-0.4-0.68-0.91-1.02-1.54l-0.63-1.15c-0.67-1.23-1-2.19-1-2.88s0.44-1.28,1.31-1.75
			c0.44-0.24,1-0.46,1.69-0.67l3.63-1.09c0.78-0.23,1.47-0.34,2.09-0.35c0.62-0.01,1.15,0.08,1.61,0.25s0.85,0.43,1.19,0.76
			c0.34,0.33,0.64,0.74,0.9,1.21l1.51,2.77c0.4,0.73,0.57,1.39,0.52,1.96c-0.05,0.58-0.37,1.03-0.96,1.35
			c-0.2,0.11-0.42,0.2-0.66,0.27l-0.91,0.28l-0.65-1.19l0.67-0.2c0.25-0.08,0.45-0.15,0.6-0.24c0.37-0.2,0.54-0.48,0.51-0.83
			c-0.03-0.36-0.23-0.9-0.63-1.62l-0.8-1.47c-0.33-0.6-0.62-1.05-0.88-1.36c-0.26-0.3-0.55-0.52-0.86-0.63
			c-0.31-0.12-0.68-0.15-1.1-0.09s-0.97,0.18-1.65,0.38l-3.78,1.13c-0.46,0.14-0.83,0.29-1.11,0.44c-0.55,0.3-0.83,0.67-0.84,1.12
			c-0.01,0.45,0.21,1.08,0.65,1.89l0.61,1.12c0.31,0.56,0.57,0.99,0.79,1.29c0.22,0.3,0.46,0.52,0.7,0.66
			c0.25,0.14,0.53,0.2,0.84,0.19s0.72-0.09,1.21-0.24l1.46-0.43l-1.83-3.36l1.18-0.35L982.66,224.12z"/>
		<path class="st3" d="M991.84,228.23c0.55,1.04,0.79,1.86,0.73,2.46s-0.47,1.11-1.21,1.51c-0.4,0.22-0.94,0.43-1.61,0.62
			l-4.19,1.24c-0.7,0.21-1.32,0.33-1.87,0.35c-0.54,0.02-1.04-0.05-1.49-0.23c-0.45-0.18-0.86-0.47-1.23-0.86
			c-0.37-0.39-0.73-0.91-1.08-1.54l-0.77-1.42c-0.55-1.01-0.79-1.83-0.71-2.46s0.49-1.14,1.23-1.54c0.37-0.2,0.85-0.39,1.42-0.57
			l4.19-1.24c0.75-0.23,1.41-0.36,1.97-0.39c0.56-0.03,1.06,0.04,1.51,0.21c0.44,0.17,0.85,0.45,1.23,0.85s0.75,0.93,1.12,1.59
			L991.84,228.23z M989.89,227.16c-0.25-0.46-0.49-0.82-0.73-1.08c-0.23-0.26-0.49-0.44-0.78-0.55s-0.63-0.14-1.02-0.1
			c-0.39,0.04-0.88,0.14-1.47,0.32l-4.19,1.24c-0.49,0.15-0.87,0.31-1.15,0.46c-0.52,0.28-0.78,0.61-0.79,0.98s0.17,0.9,0.52,1.58
			l0.77,1.42c0.24,0.42,0.47,0.76,0.67,1.01c0.2,0.25,0.44,0.43,0.71,0.56s0.61,0.18,1.01,0.16s0.88-0.11,1.45-0.29l4.19-1.24
			c0.59-0.17,1.03-0.34,1.34-0.51c0.48-0.26,0.73-0.58,0.75-0.95c0.02-0.37-0.15-0.9-0.53-1.6L989.89,227.16z"/>
		<path class="st3" d="M991.58,253.04l-0.99-1.81l9.09-5.9l-0.01-0.03l-12.11,0.35l-0.97-1.79l9.99-6.74l0.67,1.22l-9.17,6.07
			l0.02,0.03l12.28-0.37l0.96,1.76l-9.2,6.02l0.02,0.03l12.33-0.27l0.67,1.24L991.58,253.04z"/>
		<path class="st3" d="M994.61,258.59l-0.65-1.19l11.76-3.51l0.65,1.19L994.61,258.59z"/>
		<path class="st3" d="M997.69,264.25l-0.65-1.19l10.59-3.14l-1.86-3.41l1.17-0.36l4.37,8.02l-1.17,0.36l-1.86-3.41L997.69,264.25z"
			/>
		<path class="st3" d="M1004.78,277.28l-0.65-1.19l5.41-1.61l-3.36-6.17l-5.41,1.62l-0.65-1.19l11.76-3.51l0.65,1.2l-5.17,1.54
			l3.36,6.17l5.17-1.54l0.65,1.19L1004.78,277.28z"/>
		<path class="st3" d="M1010.5,287.78l-0.65-1.19l10.59-3.14l-1.86-3.41l1.17-0.36l4.37,8.02l-1.17,0.36l-1.86-3.41L1010.5,287.78z"
			/>
		<path class="st3" d="M1017.6,300.8l-0.65-1.19l5.41-1.61l-3.36-6.17l-5.41,1.62l-0.65-1.19l11.75-3.51l0.65,1.2l-5.17,1.54
			l3.36,6.17l5.17-1.54l0.65,1.19L1017.6,300.8z"/>
		<path class="st3" d="M1025.68,301.59l2.91,5.34l-1.1,0.33l-2.91-5.34l-4.31,1.29l3.04,5.58l-1.18,0.35l-3.69-6.77l11.75-3.51
			l3.69,6.77l-1.17,0.36l-3.04-5.58L1025.68,301.59z"/>
		<path class="st3" d="M1037.3,311.89l2.79,5.13c0.2,0.37,0.36,0.72,0.48,1.05c0.12,0.33,0.18,0.7,0.17,1.08
			c-0.01,0.39-0.14,0.77-0.39,1.16c-0.25,0.38-0.66,0.73-1.23,1.05c-0.44,0.24-0.97,0.45-1.59,0.63l-2.81,0.83
			c-0.44,0.13-0.9,0.23-1.38,0.3c-0.48,0.07-1.03,0.07-1.63-0.01c-0.6-0.07-1.19-0.29-1.76-0.65c-0.57-0.36-1.06-0.91-1.46-1.65
			l-2.95-5.41L1037.3,311.89z M1029.52,320.18c0.28,0.51,0.59,0.91,0.92,1.17c0.33,0.27,0.7,0.44,1.08,0.52
			c0.39,0.08,0.8,0.09,1.24,0.02c0.44-0.06,0.95-0.18,1.55-0.34l3.09-0.92c0.26-0.08,0.51-0.19,0.75-0.32
			c0.23-0.12,0.43-0.26,0.61-0.42s0.33-0.35,0.44-0.58c0.11-0.23,0.16-0.49,0.14-0.78c-0.02-0.29-0.12-0.61-0.31-0.95l-2.25-4.13
			l-9.41,2.79L1029.52,320.18z"/>
		<path class="st3" d="M1045.48,326.71c0.55,1.04,0.79,1.86,0.73,2.46c-0.06,0.61-0.47,1.11-1.21,1.51
			c-0.4,0.22-0.94,0.43-1.61,0.62l-4.19,1.24c-0.7,0.21-1.32,0.33-1.87,0.35c-0.55,0.02-1.04-0.05-1.49-0.23
			c-0.45-0.18-0.86-0.47-1.23-0.86c-0.37-0.39-0.73-0.91-1.08-1.54l-0.77-1.42c-0.55-1.01-0.79-1.83-0.71-2.46
			c0.08-0.63,0.49-1.14,1.23-1.54c0.38-0.2,0.85-0.4,1.42-0.57l4.19-1.24c0.75-0.23,1.41-0.36,1.97-0.39s1.06,0.04,1.51,0.21
			c0.44,0.17,0.85,0.46,1.23,0.85c0.37,0.4,0.75,0.93,1.12,1.58L1045.48,326.71z M1043.53,325.64c-0.25-0.46-0.49-0.82-0.73-1.08
			c-0.23-0.26-0.49-0.45-0.78-0.55c-0.29-0.11-0.63-0.14-1.02-0.1c-0.39,0.04-0.88,0.14-1.47,0.32l-4.19,1.24
			c-0.49,0.15-0.87,0.31-1.15,0.46c-0.52,0.28-0.78,0.61-0.79,0.98c-0.01,0.38,0.17,0.9,0.52,1.58l0.77,1.42
			c0.24,0.43,0.47,0.76,0.67,1.01c0.2,0.25,0.44,0.44,0.71,0.56c0.27,0.12,0.61,0.18,1.01,0.16c0.4-0.02,0.88-0.11,1.46-0.29
			l4.19-1.24c0.59-0.17,1.03-0.34,1.34-0.51c0.48-0.26,0.73-0.58,0.75-0.95s-0.15-0.9-0.53-1.6L1043.53,325.64z"/>
		<path class="st3" d="M1039.83,341.62l-0.64-1.18l8.58-7.19l-0.01-0.03l-10.76,3.2l-0.65-1.2l11.75-3.51l1.12,2.07l-8.03,6.73
			l12.1,0.73l1.12,2.07l-11.75,3.51l-0.65-1.19l10.76-3.2l-0.02-0.03L1039.83,341.62z"/>
		<path class="st3" d="M1046.86,349.21l-2.94-0.08l-0.68-1.25l13.84,0.33l0.92,1.69l-9.61,7.44l-0.67-1.24l2.04-1.57L1046.86,349.21
			z M1056.47,349.43l-8.33-0.22l2.54,4.67L1056.47,349.43z"/>
		<path class="st3" d="M1049.64,359.63l-0.65-1.19l11.75-3.51l0.65,1.19L1049.64,359.63z"/>
		<path class="st3" d="M1055.65,370.68l-1.06-1.95l7.44-9.08l-0.02-0.03l-10.66,3.17l-0.65-1.2l11.75-3.51l1.07,1.97l-7.52,9.11
			l0.01,0.03l10.74-3.21l0.65,1.2L1055.65,370.68z"/>
	</g>
</g>
<g id="Warstwa_2">
	<g id="XMLID_4_">
		<g>
			<path class="st11" d="M501.6,259.91c-5.11-5.68-11.02-10.56-17.52-14.71c-4.35-2.77-8.97-5.23-13.8-7.39
				c-46.03-20.63-110.43-14.14-138.57-3.98c-17.43,6.29-32.1,15.91-44.37,27.94c-3.94,3.84-7.61,7.94-11.06,12.25
				c-6.09,7.62-11.45,15.91-16.14,24.7c-2.77,5.16-5.3,10.5-7.61,15.99c-17.39,41.06-22.88,90.21-22.16,133.73
				c0.07,3.98,0.04,7.96-0.06,11.94c-2.08,77.16,6.04,155.38,45.38,201.23c50.58,58.95,113.44,70.44,212.38,49.07
				c54.59-11.8,72.12-31.44,81.38-71.71c5.54-24.05,27.82-84.49-23.69-146.38c-19.53-23.44-33.78-57.55-23.19-93.37
				c11.83-40.01,15.14-78.74-9.28-121.97c-0.93-1.94-1.94-3.79-3.03-5.6C507.72,267.4,504.82,263.5,501.6,259.91z"/>
			<path class="st11" d="M252.82,278.77c0.07-0.1,0.25-0.33,0.52-0.75c-0.11,0.17-0.21,0.34-0.29,0.51
				c1.43-1.63,8.88-9.51,18.42-4.33l4.8-0.18c3.45-4.31,7.12-8.41,11.06-12.25c-11.64-8.65-29.52-9.66-40.84-0.69
				c-11.86,9.39-16.02,27.51-9.49,41.27c2.43,5.12,9.57,10.92,15.52,12.35c2.31-5.48,4.85-10.82,7.61-15.99l-2.79-1.55
				c-4.94-4.21-7.56-13.02-4.29-18.64C252.95,278.65,252.87,278.73,252.82,278.77z"/>
			<path d="M253.05,278.53c-3.27,5.62-0.66,14.42,4.29,18.64l2.79,1.55c4.69-8.79,10.05-17.08,16.14-24.7l-4.8,0.18
				C261.93,269.02,254.48,276.9,253.05,278.53z"/>
			<path class="st11" d="M252.82,278.77c0.05-0.04,0.12-0.12,0.23-0.24c0.08-0.17,0.18-0.34,0.29-0.51
				C253.07,278.44,252.9,278.68,252.82,278.77z"/>
			<path class="st11" d="M470.56,234.67l-0.28,3.14c4.82,2.16,9.44,4.62,13.8,7.39l0.25-2.36c6.07-6.09,20.58-2.85,21.45,5.76
				c0.18,1.85-0.32,5.29-0.76,7.11c-0.4,1.61-1.87,3.39-3.41,4.2c3.22,3.59,6.13,7.49,8.66,11.74c8.11-6.92,13.39-20.8,10.76-30.98
				c-2.77-10.71-12.4-19.22-23.22-20.5C486.99,218.89,475.67,224.91,470.56,234.67z"/>
			<path d="M484.32,242.84l-0.25,2.36c6.5,4.15,12.42,9.03,17.52,14.71c1.54-0.81,3.01-2.59,3.41-4.2c0.44-1.81,0.94-5.26,0.76-7.11
				C504.91,239.99,490.39,236.74,484.32,242.84z"/>
		</g>
		<g>
		</g>
	</g>
	
		<ellipse transform="matrix(0.9874 -0.1582 0.1582 0.9874 -48.2142 78.5706)" class="st21" cx="469.27" cy="342.04" rx="50.37" ry="45.93"/>
	
		<ellipse transform="matrix(0.9874 -0.1582 0.1582 0.9874 -51.1088 57.8425)" class="st21" cx="337.66" cy="349.86" rx="50.37" ry="45.93"/>
	<ellipse transform="matrix(0.936 -0.3521 0.3521 0.936 -96.6588 186.1533)" cx="463.39" cy="358.78" rx="15.24" ry="14.92"/>
	<ellipse transform="matrix(0.9707 -0.2403 0.2403 0.9707 -76.8771 94.7695)" cx="350.2" cy="362.65" rx="15.23" ry="14.93"/>
	<g>
		<path class="st22" d="M427.42,423.83c1.15,5.26,2.3,10.52,3.44,15.78c0.7,3.21,1.4,6.65,0.59,9.65c-0.82,3.03-3.14,5.08-5.71,5.55
			c-5.06,0.92-9.18,2.14-11.78-3.74c-2.33-5.27-3.18-15.3-4.37-21.02c-0.4-1.91-1.44-7.42,1.42-8.29c2.8-0.85,4.33-1.91,7.18-2.52
			s6.03,0.5,8.41,2.93"/>
	</g>
	<g>
		<path class="st22" d="M410.1,429.18c0.27,5.38,0.54,10.76,0.81,16.15c0.16,3.29,0.29,6.79-0.95,9.61c-1.25,2.84-3.78,4.47-6.3,4.5
			c-4.96,0.05-7.1-2.02-9.09-5.76c-2.63-4.96-2.17-15.56-2.4-21.4c-0.08-1.95-0.2-7.56,2.65-7.93c2.79-0.36,4.41-1.15,7.22-1.26
			c2.81-0.11,5.66,1.52,7.54,4.32"/>
	</g>
	<g>
		<path class="st23" d="M370.04,420.59c13.59-24.62,52.38-28.1,73.72-10.87c3.04,2.46,7,11.36,5.47,14.99
			c-3.92,9.29-20.61,8.42-28.01,6.56c-6.7-1.69-13.78-0.99-19.92,2.21c-12.92,6.74-30.02,15.65-33.42,0.61
			C366.83,429.5,367.77,424.69,370.04,420.59z"/>
	</g>
	
		<ellipse transform="matrix(0.9844 -0.176 0.176 0.9844 -59.2447 68.4264)" class="st22" cx="356.04" cy="368.13" rx="4.81" ry="4.57"/>
	
		<ellipse transform="matrix(0.9844 -0.176 0.176 0.9844 -56.6788 86.81)" class="st22" cx="460.94" cy="362.86" rx="4.81" ry="4.57"/>
</g>
<g id="Warstwa_5">
	<g>
		<path class="st24" d="M307.04,384.64c11.66-1.09,64.68-6.14,86.93-9.69c1.27-0.2,2.35,0.96,2.15,2.29
			c-1.26,8.54-7.81,34.66-41.08,38.34c-36.05,3.98-47.02-20.42-49.61-28.32C305.03,386.04,305.82,384.76,307.04,384.64z"/>
		<path class="st25" d="M348.74,416.85l-3.26,0.39c-1.44,0.17-2.84-0.67-3.54-2.13l-13.81-28.6c-1.23-2.54,0.15-5.68,2.65-6.05l0,0
			c1.33-0.19,2.66,0.48,3.43,1.76l17.07,28.22C352.84,413.01,351.45,416.53,348.74,416.85z"/>
		<path class="st25" d="M376.1,407.82L376.1,407.82c-0.76,0.71-1.88,0.56-2.48-0.34l-16.96-25.09c-0.92-1.37-0.01-3.33,1.49-3.2
			l0.02,0c0.49,0.04,0.95,0.33,1.25,0.78l16.94,25.09C376.94,405.92,376.83,407.14,376.1,407.82z"/>
		<path class="st3" d="M397.58,369.52c-24.35,4.14-82.39,9.97-95.16,11.22c-1.33,0.13-2.2,1.66-1.76,3.11
			c2.86,9.39,14.95,38.37,54.41,33.76c36.42-4.26,43.52-35.23,44.87-45.36C400.15,370.66,398.96,369.28,397.58,369.52z
			 M393.38,378.21C389,393,386.5,406.5,354,412c-33.84,5.72-44-16.83-46.45-24.31c-0.38-1.16,0.38-2.63,1.53-2.48
			c21.92,2.79,61.21-5.81,82.27-9.17C392.54,375.85,393.74,376.99,393.38,378.21z"/>
	</g>
	<g>
		<path class="st24" d="M419.78,371.95c11.69,0.59,64.85,3.2,87.34,2.88c1.28-0.02,2.21,1.29,1.85,2.58
			c-2.3,8.29-12.01,33.23-45.44,32.1c-36.21-1.23-44.08-26.99-45.67-35.19C417.61,373.05,418.56,371.89,419.78,371.95z"/>
		<path class="st25" d="M489.99,402.14L489.99,402.14c-1.12,0.7-2.46,0.54-2.98-0.36l-14.15-24.47c-0.8-1.39,0.81-3.38,2.64-3.26
			l0.02,0c0.62,0.04,1.13,0.33,1.4,0.79l14.13,24.47C491.55,400.2,491.08,401.46,489.99,402.14z"/>
		<path class="st3" d="M511.37,369.96c-24.64,0.61-82.88-1.95-95.69-2.54c-1.34-0.06-2.38,1.33-2.12,2.83
			c1.67,9.71,10.08,40.18,49.76,41.27c36.62,1.01,47.47-28.67,50.06-38.52C513.78,371.46,512.77,369.92,511.37,369.96z
			 M506.13,377.97c-2.18,7.85-11.93,30.09-43.56,29.02c-34.27-1.16-41.16-24.18-42.67-31.95c-0.23-1.2,0.66-2.3,1.82-2.24
			c11.06,0.56,42.58,5.22,82.66,2.73C505.59,375.46,506.47,376.75,506.13,377.97z"/>
	</g>
	<path class="st3" d="M420.52,388.55c-3.27-1.27-8.5-2.72-14.8-1.91c-4.91,0.63-8.82,2.43-11.51,4.01
		c-0.18-2.23-0.36-4.46-0.53-6.69c2.25-1.76,5.95-4.11,10.87-4.95c7.01-1.19,12.69,1.34,15.44,2.85
		C420.17,384.09,420.34,386.32,420.52,388.55z"/>
</g>
<g id="Warstwa_3">
	<g>
		<g>
			<g>
				<g>
					<g>
						<path class="st26" d="M412.11,479.92c0,0,41.21-36.92,118.7-37.92c1.09,8.12,1.36,14.48,1.64,17.3
							c-95.67,44.64-107.57,43.83-107.57,43.83L412.11,479.92z"/>
						<path class="st27" d="M412.11,479.92c0,0,48.73-34.13,126.74-29.67c-120.06,39.82-121.18,42.06-121.18,42.06L412.11,479.92z"
							/>
						<path class="st26" d="M411.52,483.06c0,0,40.07-29.68,115.46-31.81c0.62-0.02,0.49,0.23-0.21,0.3
							c-26.17,1.07-43.07,4.21-60,8.59c-34.93,9.06-54.74,23.69-54.74,23.69L411.52,483.06z"/>
					</g>
					<g>
						<path class="st27" d="M411.42,479.65c0,0-46.27-34.24-132.81-4.57c125.55,16.39,127.07,18.38,127.07,18.38L411.42,479.65z"/>
						<path class="st26" d="M409.93,483.22c0,0,1.99,3.41-0.28,0.99c-5.5-5.84-25.2-13.16-49.33-15.03
							c-16.79-1.31-36.68-0.33-62.95,4.53c-1.94,0.36-0.77-0.12-0.34-0.4C378.2,457.46,409.93,483.22,409.93,483.22L409.93,483.22z"
							/>
					</g>
				</g>
				<path class="st3" d="M553.07,450.74l15.15,155.67c0.26,2.67-1.66,5.25-4.75,6.35l-114.83,41.21l-20.21-174.29l114.64-34.01
					C547.76,444.29,552.68,446.76,553.07,450.74z"/>
				<path class="st28" d="M273.01,477.28l15.18,155.93c0.25,2.62,2.59,4.73,5.76,5.22l123.37,19.48l-16.35-175.6l-119.29-11.75
					C276.89,470.09,272.64,473.39,273.01,477.28z"/>
			</g>
		</g>
		<path class="st4" d="M438.34,476.91c0,0,12.06,176.86,20.67,173.32l-10.42,3.75l-20.18-174.29L438.34,476.91z"/>
		<g>
			<path class="st3" d="M417.32,657.91l31.3-3.93l-14.39-174.53c0,0-6.21-1.14-17.5-0.06c-12.5,1.19-15.43,2.82-15.43,2.82
				L417.32,657.91z"/>
			<path class="st4" d="M411.78,479.12c1.51-0.14,10.99-0.24,12.31-0.18c-17.03,1.35-22.32,4.92-22.32,4.92l15.55,174.04l-10.08-1.6
				c0,0,4.01-4.95,3.91-9.13c-0.99-42.22-14.92-165.24-14.92-165.24S399.28,480.31,411.78,479.12z"/>
			<path class="st5" d="M417.45,617.54c-0.29-1.79-0.41-3.61-0.35-5.41c5.57-0.97,24.35-2.65,24.35-2.65s0.6,0.72,0.65,6.09
				C439.57,613.68,417.16,615.76,417.45,617.54z"/>
			<path class="st5" d="M417.96,625.98c-0.29-1.79-0.41-3.61-0.35-5.41c5.57-0.97,24.35-2.65,24.35-2.65s0.61,0.72,0.65,6.09
				C440.07,622.13,417.66,624.21,417.96,625.98z"/>
			<path class="st5" d="M444.07,650c-7.35-0.43-15-0.78-21.55,3.03c-0.78-7.32-1.57-14.63-2.35-21.95c-0.03-0.23-0.05-0.48,0.01-0.7
				c0.07-0.25,0.25-0.41,0.42-0.55c1.85-1.54,4.18-1.83,6.43-2.04c2.58-0.24,5.16-0.41,7.75-0.51c2.29-0.09,5.2-0.71,7.43,0.01
				C442.22,629.22,443.5,649.96,444.07,650z"/>
			<path class="st6" d="M430.16,486.69c1.5,3.54,1.32,7.71,1.29,11.65c-0.12,15.99,2.76,31.99,3.27,48.02
				c0.05,1.5-0.22,3.45-1.36,3.56c-1.23,0.12-1.82-2-1.98-3.61c-1.46-15.37-3.35-30.7-5.68-45.95c-0.43-2.84-1.05-6.01-2.94-7.64
				c-1.67-1.43-4.28-1.72-4.79-4.19c-0.58-2.83,2.91-5.54,4.69-6.08C425.43,481.59,428.74,483.32,430.16,486.69z"/>
			<path class="st6" d="M435.37,556.44c1.21,2.27,1.04,5.19,0.93,7.86c-0.27,6.59,0.12,13.26,1.15,19.81
				c0.17,1.09,0.36,2.2,0.23,3.28c-0.14,1.07-0.68,2.11-1.51,2.3c-0.85,0.2-1.74-0.58-2.21-1.57s-0.61-2.16-0.74-3.29
				c-0.81-7-1.5-14.01-2.07-21.04c-0.13-1.59-0.25-3.2-0.03-4.74C431.47,556.6,433.59,553.11,435.37,556.44z"/>
		</g>
	</g>
</g>
<g id="Warstwa_4">
	<g>
		<path class="st29" d="M562.94,502.1c-7.58-1.44-14.32,2.25-21.48,3.37c-2.03,0.32-4.12,0.67-5.53,2.56
			c-1.41,1.89-2.01,5.72-0.82,9.98c1.75,6.27,6.07,10,9.53,11.87c9.86,5.35,12.46,4.49,20.36,2.12C575,529,573,504,562.94,502.1z"/>
	</g>
	<g>
		<path class="st29" d="M258.05,544.26c5.14-7.77,17.92-8.96,26.88-13.43c4.4-2.2,9.97-4.35,15.57-1.58
			c4.01,1.99,6.59,6.05,7.06,9.63c0.47,3.58-0.79,6.76-2.4,9.61c-5.67,10.04-15.86,17.43-28.6,20.73
			C276.57,569.21,251.67,553.91,258.05,544.26z"/>
	</g>
	<g>
		<path class="st29" d="M510.01,683.49c9.2-19.85,18.86-40.33,34.9-54.79c32.31-26.01,30.59,31.2,14.74,46.58
			C552.39,689.99,499.2,715.51,510.01,683.49z"/>
	</g>
	<g>
		<path class="st29" d="M299.93,690.2c-3.46-5.34-6.33-11.36-6.51-17.63c-0.17-6.27,2.93-12.77,8.55-14.82
			c5.55-2.03,11.82,0.55,17.41,3.09c9.2,4.18,18.55,8.44,26.38,15.08c7.83,6.63,15.85,25.71,15.85,25.71
			c4.81,5.98,1.38,15.56-5.09,18.77c-6.46,3.21-14.42,1.64-21.38-1.12C320.99,713.68,308.43,703.3,299.93,690.2z"/>
	</g>
	<ellipse transform="matrix(0.9986 -0.0538 0.0538 0.9986 -20.8857 22.4685)" cx="406.91" cy="399.19" rx="22.2" ry="10.4"/>
</g>
<g id="Warstwa_6">
</g>
</svg>
