<?xml version="1.0" encoding="utf-8"?>
<!-- Generator: Adobe Illustrator 27.0.1, SVG Export Plug-In . SVG Version: 6.00 Build 0)  -->
<svg version="1.1" xmlns="http://www.w3.org/2000/svg" xmlns:xlink="http://www.w3.org/1999/xlink" x="0px" y="0px"
	 viewBox="0 0 1420 900" style="enable-background:new 0 0 1420 900;" xml:space="preserve">
<style type="text/css">
	.st0{fill:#686868;}
	.st1{fill:#95D8FF;}
	.st2{fill:#E2E1D0;}
	.st3{fill:#040607;}
	.st4{fill:#B6E4FC;}
	.st5{fill:#FFFFFF;stroke:#FFFFFF;stroke-miterlimit:10;}
	.st6{fill:#FFFFFF;}
	.st7{fill:#F6D2A2;}
	.st8{fill:#F5D1A4;}
	.st9{fill:#161616;}
	.st10{fill:#E1F8FF;}
	.st11{opacity:0.31;fill:#FFFFFF;}
	.st12{fill:#C6C6C6;}
	.st13{fill:#59705F;}
	.st14{fill:#B1E0BC;}
	.st15{fill:#94BFA2;}
	.st16{fill:#698772;}
	.st17{fill:#87AD92;}
	.st18{fill:#9B9B9B;}
	.st19{opacity:0.25;fill:#E2E1D0;}
	.st20{opacity:0.64;fill:#59705F;}
	.st21{fill:#EDECDD;}
	.st22{fill:none;stroke:#E2E1D0;stroke-miterlimit:10;}
</style>
<g id="Warstwa_2">
	<path class="st0" d="M1236.72,902H230.28c-2.91,0-5.28-2.36-5.28-5.28v-32.45c0-2.91,2.36-5.28,5.28-5.28h1006.45
		c2.91,0,5.28,2.36,5.28,5.28v32.45C1242,899.64,1239.64,902,1236.72,902z"/>
	<g>
		<polygon class="st1" points="394.59,248.74 434.43,256.06 471.11,287.99 435.14,255.02 435.03,254.92 434.87,254.88 
			372.37,241.78 333.3,210.12 345.49,210.95 331.29,208.49 312.35,193.14 292.23,144.03 291.58,142.43 289.77,142.3 246.69,139.09 
			231.16,62.83 230.91,61.61 230.01,60.66 209.61,39.19 237.04,46.25 277.05,101.17 277.2,101.37 277.37,101.49 293.07,112.6 
			311.57,142.85 311.6,142.88 311.62,142.91 331.5,162.56 312.16,142.44 296.21,114.83 305.02,121.07 305.32,121.28 305.67,121.24 
			350.92,116.56 366.88,127.85 351.21,115.99 351.13,115.92 351.01,115.93 305.98,119.23 279.46,99.15 240.8,42.38 240.34,41.69 
			239.46,41.44 202.27,30.6 202.06,31.23 177.64,5.52 173.79,-92.26 161.04,-90.95 166.81,8.56 166.91,10.29 166.51,10.14 
			158.28,31.05 126.46,58.29 126.35,58.39 126.31,58.51 120.15,80.69 127.06,58.84 156.63,35.26 126.7,111.34 103.34,155.39 
			102.93,156.17 103.06,156.94 75.67,233.2 75.63,233.31 75.64,233.41 79.81,261.17 76.48,233.36 104.08,162.88 119.73,254.28 
			119.81,254.72 120.11,255 141.18,274.61 158.75,325.43 158.77,325.47 158.79,325.5 181.44,364.7 159.65,325.04 147.17,286.32 
			168.84,299.16 146.61,284.58 143.08,273.61 143.01,273.39 142.82,273.21 122.34,253.29 107.89,156.78 130.39,116.32 
			177.09,162.35 178.29,186.25 178.31,162.01 178.31,161.8 178.15,161.62 132.68,111.73 172.47,16.2 222.21,66.57 247.4,179.31 
			247.59,180.16 248.1,180.77 261.75,197.06 255.06,247.99 255.03,248.23 255.17,248.4 272.32,268.32 256.16,247.87 264.35,200.16 
			285.08,224.88 305.32,302.39 305.42,302.8 305.64,303.11 357.75,377.02 366.37,424.88 366.41,425.14 366.57,425.33 435.4,506.82 
			368.32,424.19 360.58,376.06 360.54,375.77 360.36,375.5 333.17,335.3 382.06,346.17 409.21,390.78 382.96,345.32 382.85,345.13 
			382.61,345.07 331.22,332.42 309.74,300.66 290.89,222.42 290.74,221.81 290.32,221.28 254.34,176.64 248.17,146.36 
			287.33,148.31 308.16,195.71 308.4,196.25 308.82,196.58 370.8,244.21 371.06,244.41 371.36,244.47 392.56,248.37 409.68,276.03 
					"/>
	</g>
	<g>
		<polygon class="st1" points="888.18,-56.45 863.6,-55.39 883.74,-52.49 853.47,-25.55 850.72,-23.11 851.33,-19.62 869.67,86.28 
			855.38,146.15 855.31,146.44 855.46,146.65 868.66,165.55 856.66,146.22 871.44,96.46 881.33,153.56 881.5,154.55 882,155.32 
			930.41,229.44 898.54,328.32 898.36,328.87 898.56,329.33 916.61,371.2 901.43,328.82 914.04,296.78 932.19,326.57 929.95,344.61 
			932.97,326.54 932.99,326.41 932.92,326.29 915.1,294.09 936.73,239.12 1019.64,366.05 979.37,448.72 946.21,467.11 
			946.15,467.15 946.13,467.21 941.67,481.79 946.42,467.37 978.51,450.48 957.02,494.59 956.9,494.85 957.03,495.09 981.77,541.02 
			958.11,494.84 995.07,422.8 1033,492.16 1033.06,514.52 1033.51,492.1 1033.51,492.04 1033.48,491.98 996.37,420.27 
			1023.8,366.81 1024.32,365.8 1023.7,364.8 981.15,296.61 1003.55,308.25 977.55,290.85 890.4,151.16 876.98,62.82 947.16,163.25 
			947.44,163.65 947.86,163.72 960.04,165.98 972.2,181.2 961.68,166.28 986.14,170.81 948.8,161.66 873.44,39.52 864.69,-18.07 
			936.93,-79.73 956.57,-10.39 943.49,-85.33 944.17,-85.9 944.72,-88.51 958.39,-153.34 942.17,-156.58 930.31,-93.95 		"/>
	</g>
	<g>
		<polygon class="st1" points="1361.19,7.33 1343.66,23.26 1343.56,23.35 1343.57,23.44 1345.29,36.7 1345.32,23.8 1362.39,11.01 
			1386.35,84.33 1374.05,155.38 1345.81,176.01 1211.38,170.23 1209.49,170.14 1208.55,170.74 1155.92,204.34 1106.67,195.59 
			1106.2,195.5 1105.9,195.6 1081.14,203.32 1106.9,196.61 1153.12,206.13 1121.23,226.48 1011.35,243.79 1123.65,228.28 
			1124,228.23 1124.26,228.08 1159.37,207.41 1159.44,207.43 1159.45,207.37 1214.92,174.71 1276.26,178.24 1253.47,204.45 
			1225.38,201.15 1225.19,201.13 1225.07,201.16 1213.52,204.41 1225.57,201.65 1254.54,205.94 1255.42,206.07 1255.81,205.71 
			1284.77,178.73 1337.89,181.79 1275.41,227.42 1275.16,227.61 1275.02,227.8 1242.93,271.33 1242.88,271.29 1178.76,284.59 
			1178.16,284.71 1178.04,285 1170.18,302.96 1148.6,309.52 1171.39,303.6 1171.57,303.55 1171.63,303.44 1181.39,286.22 
			1239.23,276.35 1192.35,339.94 1192.07,340.32 1192.32,340.75 1203.11,359.45 1159.21,389.89 1159.1,389.96 1159.09,390.05 
			1156,410.76 1160.77,390.47 1205.08,362.88 1249.93,440.61 1202.26,495.94 1252.27,441.17 1252.41,441.02 1252.3,440.82 
			1233.86,406.97 1274.72,425.2 1282.25,439.17 1275.55,425.13 1275.51,425.05 1275.35,424.98 1232.83,405.08 1198.06,341.26 
			1264.32,256.9 1288.79,295.02 1283.05,302.45 1290.7,298 1318.86,341.85 1302.57,376.85 1302.49,377.01 1302.72,377.16 
			1329.38,394.93 1303.94,377.04 1318.13,351.28 1337.17,365 1318.88,349.94 1322.91,342.61 1323.04,342.39 1322.87,342.09 
			1269.7,250.06 1284.65,231.02 1316.97,208.52 1316.82,218.4 1321.87,205.11 1364.97,175.11 1393.38,218.02 1358.42,254.43 
			1390.01,225.49 1395.01,240.59 1391.88,223.78 1397.14,218.96 1397.42,218.71 1397.2,218.33 1369.88,171.68 1386.87,159.86 
			1387.56,159.38 1387.71,158.67 1398.65,106.75 1436.25,141.53 1441.04,162.55 1439.59,141.7 1439.58,141.55 1439.37,141.32 
			1400.27,99.02 1402.81,86.96 1402.9,86.53 1402.75,86 1367.33,-34.5 1347.03,-36.01 		"/>
	</g>
	<g>
		<polygon class="st1" points="659.56,16.55 659.66,16.7 659.76,16.76 674.21,25.73 660.73,15.67 653.87,3.55 653.8,3.44 
			653.63,3.27 611.2,-38.29 609.87,-36.81 573.11,-207 622.15,-162.73 571.38,-215.03 557.31,-280.18 534.65,-274.82 
			575.47,-116.06 437.03,-53.22 436.43,-52.94 436.1,-52.59 373.21,14.39 439.7,-48.05 503.8,-72.42 492.97,-25.38 484.25,-15.97 
			493.76,-24.79 493.84,-24.87 493.89,-25.01 509.32,-74.51 579.31,-101.12 612.67,28.61 566.1,112.35 565.54,111.33 491.78,154.27 
			491.7,154.32 491.65,154.36 463.24,179.59 492.61,155.63 562.53,118.77 531.95,173.76 531.7,174.21 531.66,174.63 528.52,208.74 
			528.38,208.6 504.19,234.63 528.19,212.31 521.24,287.8 536,175.63 590.56,85.93 633.41,174.31 614.92,211.15 634.89,174.66 
			635.06,174.35 634.9,174 593.72,80.74 623.29,32.13 624.37,30.35 623.89,28.1 611.83,-27.73 651.75,5.17 		"/>
	</g>
	<g>
		<polygon class="st1" points="194.46,508.37 194.01,508.56 193.82,509.08 168.04,578.11 133.76,590.32 133.35,590.46 
			132.98,590.79 84.08,634.01 86.59,553.01 116.81,535.3 116.9,535.24 116.95,535.17 129.02,516.97 116.34,534.53 84.94,551.17 
			84.39,551.46 84.34,552.16 78.39,639.04 56.6,658.3 -9.9,669.43 -59.97,584 2.11,583.38 21.12,590.95 2.51,581.79 2.41,581.74 
			2.24,581.72 -64.08,576.98 -117.45,485.93 -100.63,469.33 -75.19,462.58 -95.96,464.72 -22.92,392.62 22.85,398.89 22.98,398.91 
			23.06,398.89 43.05,394.53 22.94,397.52 -19.13,388.88 18.68,351.56 119.19,363.14 50.89,352.48 60.08,347.88 69.5,347.63 
			60.01,347.28 59.96,347.28 59.9,347.31 48.56,352.12 18.19,347.38 17.39,347.26 16.72,347.87 -68.78,426 -55.73,359.95 
			-31.35,350.22 -56.38,358.96 -56.65,359.05 -56.73,359.37 -73.65,430.46 -123.34,475.87 -161.73,410.36 -175.58,419.89 
			-98.98,542.99 -69.4,706.31 -75.78,759.58 -75.81,759.8 -75.71,759.98 -56.65,796.12 -74.58,759.59 -67.88,714.72 -62.77,742.93 
			-62.69,743.37 -62.45,743.67 -8.91,811.12 -59.95,742.05 -68.02,687.17 -41.02,711.3 -68.98,680.66 -86.2,563.51 -15.59,676.99 
			-13.94,679.65 -11.17,679.1 2.11,676.46 20.87,689.98 6.9,675.51 57.17,665.52 138.53,709.93 139.19,710.28 139.84,710.15 
			198.83,698.44 222.62,711.87 222.67,711.9 222.71,711.89 229.21,710.55 222.71,711.6 200.84,698.04 283.34,681.65 139.78,705.68 
			106.66,686.35 163.91,653.28 196.91,658.1 196.97,658.11 197.02,658.1 215.93,654.28 196.95,657.4 163.84,651.35 163.58,651.3 
			163.31,651.44 130.42,668.9 132.93,659.21 136.89,655.12 132.26,658.58 132.19,658.63 132.13,658.78 127.09,670.67 102.32,683.82 
			63.93,661.42 135.93,595.3 222.26,562.63 256.04,590.49 256.22,590.63 256.42,590.61 280.58,587.41 256.51,589.5 225.27,561.49 
			272.96,543.44 397.96,571.2 330.98,554.95 353.89,546.8 328.35,554.31 273.08,540.9 272.77,540.82 272.45,540.93 173.09,576.31 
			195.89,510.55 208.9,504.59 208.86,504.7 240.32,517.73 240.47,517.79 240.6,517.77 260.07,513.64 240.57,516.64 212.22,503.07 
			250.04,485.74 286.57,478.55 249.82,484.77 249.77,484.78 249.72,484.8 		"/>
	</g>
	<g>
		<polygon class="st1" points="1338.32,686.73 1338.2,686.87 1338.16,686.99 1331.79,702.63 1339.06,687.42 1348.22,677.16 
			1348.3,677.06 1348.43,676.85 1379.02,625.42 1377.8,624.81 1509.18,531.92 1476.76,590.01 1515.38,527.54 1565.66,491.98 
			1560.46,474.44 1438.21,566.7 1382.93,470.37 1382.69,469.95 1382.4,469.79 1327.25,439.87 1379.01,474.52 1400.91,520.83 
			1363.66,528.46 1355.92,524.36 1363.24,529.36 1363.3,529.4 1363.42,529.39 1402.79,524.82 1426.7,575.38 1326.8,650.78 
			1259.28,640.92 1260.05,640.07 1223.21,592.15 1223.17,592.09 1223.13,592.07 1202.15,576.75 1222.18,593.35 1254.1,640.16 
			1209.76,633.69 1209.4,633.64 1209.07,633.76 1182.27,643.34 1182.37,643.18 1160.96,631.76 1179.47,644.35 1120.16,665.57 
			1208.48,637.84 1281.02,652.43 1213.85,721.08 1184.24,718.46 1213.65,722.48 1213.9,722.51 1214.16,722.26 1285.22,653.27 
			1324.52,661.18 1325.96,661.46 1327.7,660.24 1370.79,629.77 1346.86,675.92 		"/>
	</g>
</g>
<g id="Warstwa_5">
	<g>
		<path class="st2" d="M700.77,261.37c-1.44,9.1-11.4,13.24-20.37,17.05c-28.26,12.01-53.96,29.19-61.27,56.67l0.1,0.56
			c-4.61,3.11-12.8,1.3-20.08-0.58c-15.1-3.91-30.2-7.82-45.3-11.73c11.93-2.21,24.16-3.95,36.65-5.21
			c-11.08-8.02-20.64-17.51-31.17-26.1c-10.53-8.59-22.72-16.57-35.31-19.57c15.75-2.04,35.01,2.33,51.95,11.81
			c-10.71-8.69-20.58-18.36-27.7-28.85c-7.12-10.5-11.34-21.89-10.31-31.67c13.1,14.86,32.36,26.79,51.48,31.86
			c-9.18-19.26-22.16-38.31-38.12-55.95c16.47,4.74,32.96,11.72,48.53,20.54c5.37,3.04,11.28,7.05,12.73,11.81
			c-9.16-22.44-2.22-44.19,16.95-53.15c0.22,9.44,1.87,19.27,4.89,29.22c1.76,5.81,4.71,12.49,11.16,16.37
			c1.03,0.62,2.19,1.16,3.25,1.22c1.34,0.07,2.25-0.63,3-1.34c7.22-6.86,9.06-17.88,4.87-29.22c27.27,16.62,45.88,45.41,43.95,68.01
			"/>
	</g>
	<g>
		<path class="st2" d="M897.45,389.1c-7.6-3.91-8.36-13.89-9.11-22.91c-2.38-28.4-10.06-56.04-32.16-70.46l-0.52-0.07
			c-1.4-4.96,2.57-11.66,6.35-17.53c7.83-12.18,15.66-24.35,23.5-36.53c-1.52,11.16-3.54,22.45-6.05,33.82
			c10.29-7.44,21.43-13.11,32.06-19.9c10.63-6.79,21.21-15.21,27.51-25.44c-2.77,14.48-12.23,30.19-25.49,42.36
			c10.77-6.91,22.16-12.81,33.48-16.04c11.32-3.23,22.59-3.64,30.91,0.11c-16.91,7.23-33.01,20.74-43.03,36.12
			c19.64-2.5,40.2-8.41,60.38-17.36c-8.96,13.15-19.9,25.65-32.2,36.82c-4.24,3.85-9.49,7.89-14.11,7.79
			c22.44-1.56,39.6,10.88,41.93,30.38c-8.38-2.54-17.53-3.95-27.18-4.17c-5.63-0.13-12.38,0.52-17.67,5.08
			c-0.85,0.73-1.66,1.59-2.02,2.51c-0.45,1.16-0.1,2.16,0.31,3.03c3.95,8.36,13.13,13.18,24.34,12.78
			c-22.57,19.21-53.35,27.26-72.72,19"/>
	</g>
	<g>
		<path class="st2" d="M801.69,278.9c-7.12,1.52-12.99-4.65-18.35-10.19c-16.87-17.44-36.82-31.52-59.15-29.12l-0.38,0.23
			c-3.6-2.52-4.59-9.07-5.26-14.97c-1.4-12.24-2.79-24.49-4.19-36.73c5.01,8.17,9.76,16.7,14.23,25.55
			c2.78-10.45,7.06-20.18,10.41-30.38c3.35-10.2,5.78-21.45,4.43-31.58c5.97,11.04,8.2,26.48,6.02,41.65
			c3.37-10.36,7.7-20.38,13.43-28.6s12.93-14.57,20.43-16.58c-7.25,13.87-10.58,31.45-8.9,46.99c11.6-12.23,21.97-27.2,30.45-43.96
			c1.18,13.49,0.7,27.63-1.39,41.61c-0.72,4.82-2,10.31-5.1,12.74c13.95-13.11,31.96-14.16,44-2.56
			c-6.9,2.84-13.68,6.84-20.16,11.89c-3.78,2.95-7.88,7.01-8.91,12.87c-0.17,0.94-0.24,1.94,0.02,2.74c0.33,1.01,1.1,1.48,1.84,1.83
			c7.1,3.38,15.75,1.61,22.93-4.69c-4.53,24.82-20.49,46.7-37.7,51.69"/>
	</g>
</g>
<g id="Warstwa_4">
	<g id="XMLID_00000035501390042218768070000013583596922954330785_">
		<g>
			<path class="st1" d="M890.68,286.07c2.64-34.42-18.4-50.15-19.02-50.61c14.53,4.83,27.36,13.94,25.56,29.23
				c-0.91,7.71-2.87,15.64-6.53,21.38H890.68z"/>
			<path class="st1" d="M871.66,235.46c0.62,0.46,21.66,16.19,19.02,50.61h0.01c-3.6,5.65-8.86,9.17-16.41,8.28
				c-15.21-1.79-40.23-21.99-38.42-37.28c1.8-15.3,21.52-26.38,35.79-21.62C871.65,235.45,871.65,235.45,871.66,235.46z"/>
		</g>
		<g>
		</g>
	</g>
	<path class="st3" d="M849.97,257.35c9.54-7.53,18.02-9.93,26.72-1.67c7.51,7.13,2,25.67-7.54,33.2s-22.74,3.38-27.02-5.93
		C837.76,273.46,840.42,264.88,849.97,257.35z"/>
	<path class="st1" d="M656.3,223.08c15.93-1.13,30.37,9.13,30.89,23.84c0.54,15.25-25.28,38.43-40.64,34.08
		c-13.63-3.86-21.9-22.05-17.67-36.45C633.18,229.88,644.83,223.9,656.3,223.08z"/>
	<path class="st3" d="M677.28,246.4c9.51,7.58,14.38,17.28,8.35,24.84c-6.02,7.55-23.64,6.67-33.15-0.91
		c-9.51-7.58-8.95-20.77-1.28-26.54C659.03,237.92,667.78,238.82,677.28,246.4z"/>
	<g id="XMLID_00000013180037276593657450000007267490451726955434_">
		<g>
			<path class="st1" d="M836.13,256.58l-0.27,0.48c0,0,65.05,55.05,41.27,190.07C860.5,541.5,897.5,607.49,897.5,607.49l8.07-8.64
				c-0.77-6.38-1.93-12.75-3.53-19.06c-4.1-16.37-9.83-32.64-14.07-49.12c-3.33-12.94-1.66-11.26-1.64-24.57
				c0-3.66,0.18-7.34,0.59-11.02c3.7-35.22,12.09-69.89,14.86-105.15c0.68-8.81,1.02-17.66,0.85-26.54
				c0.74-10.71-0.04-20.77-2.09-30.17c-2.06-9.4-5.4-18.15-9.8-26.23C877.39,285.49,858.28,268.58,836.13,256.58z"/>
			<path class="st1" d="M705.08,239.79c0,0-102.45,54.64-134.51,419.06c9.29,30.9,27.45,58.09,59.05,77.48
				c9.31,6.86,19.3,12.77,29.79,17.7c31.48,14.78,67.28,20.75,101.56,16.95c15.23-1.69,30.17-5.31,44.28-10.93
				c57.51-20.32,102.61-86.79,101.47-145.22c-0.1-5.31-0.47-10.64-1.15-15.97l-8.07,8.64c0,0-37-66-20.37-160.36
				c23.78-135.02-41.27-190.07-41.27-190.07l0.27-0.48C796.84,235.19,748.03,229.17,705.08,239.79z"/>
			<path class="st4" d="M705.08,239.79c-45.31,10.75-79.81,49.86-88.19,93.64c-0.6,1.51-1.85,5.99-3.61,12.64
				c-1.75,6.62-3.96,15.42-6.51,25.49c-2.55,10.12-5.51,21.43-8.53,33.22c-9.03,35.35-18.76,74.95-23.57,96.48
				c-11.42,51.19-18.74,108.97-4.11,157.59C602.63,294.43,705.08,239.79,705.08,239.79z"/>
		</g>
		<g>
		</g>
	</g>
	
		<ellipse transform="matrix(0.1172 -0.9931 0.9931 0.1172 259.014 981.2193)" class="st5" cx="681.41" cy="344.92" rx="47.24" ry="52.59"/>
	
		<ellipse transform="matrix(0.1172 -0.9931 0.9931 0.1172 383.2943 1131.1635)" class="st5" cx="827.89" cy="349.99" rx="47.24" ry="52.59"/>
	<g>
		<path class="st6" d="M742.16,418.6c-0.7,4.88-1.41,9.77-2.11,14.65c-0.43,2.98-0.84,6.17,0.12,8.85c0.97,2.71,3.26,4.42,5.68,4.67
			c4.76,0.49,8.66,1.31,10.67-4.24c1.8-4.97,1.9-14.19,2.61-19.5c0.24-1.77,0.82-6.87-1.89-7.47c-2.65-0.58-4.14-1.44-6.83-1.8
			c-2.69-0.36-5.56,0.88-7.6,3.26"/>
	</g>
	<g>
		<path class="st6" d="M757.74,421.48c0.12,4.82,0.24,9.64,0.36,14.46c0.07,2.94,0.19,6.08,1.51,8.51c1.32,2.45,3.73,3.73,6.01,3.58
			c4.5-0.3,6.3-2.29,7.84-5.76c2.05-4.6,0.92-14.03,0.74-19.25c-0.06-1.75-0.32-6.75-2.93-6.89c-2.55-0.13-4.08-0.72-6.63-0.63
			c-2.55,0.09-5.03,1.74-6.54,4.37"/>
	</g>
	<g>
		<path class="st7" d="M794.43,418.39c-4.49-6.1-11.45-9.18-18.69-9.74c-1.52-0.24-3.09-0.5-4.7-0.74
			c-3.21-0.49-6.56-0.93-9.96-1.22c-2.26-0.2-4.55-0.33-6.82-0.43c-11.93-1.27-27.32,0.29-32.72,12.62
			c-0.95,3.27-1.96,7.09,1.04,10.26c8.59,8.34,19.87,3.47,29.9,4.15c1.8-0.02,3.6-0.01,5.38,0.08c7.5,0.82,14.73,1.67,21.75,4.19
			c4.94,1.15,10.98,2.42,15.4-1.56c2.62-3.07,3.21-8.07,2.17-12.24C796.63,421.83,795.67,420.02,794.43,418.39z"/>
	</g>
	<ellipse transform="matrix(0.1883 -0.9821 0.9821 0.1883 215.0625 948.925)" cx="681.63" cy="344.35" rx="7.34" ry="7.6"/>
	<ellipse transform="matrix(0.1172 -0.9931 0.9931 0.1172 394.3239 1142.8997)" cx="840.01" cy="349.65" rx="6.8" ry="7.04"/>
	
		<ellipse transform="matrix(0.1172 -0.9931 0.9931 0.1172 399.1693 1144.621)" class="st6" cx="843.4" cy="347.79" rx="2.19" ry="2.34"/>
	
		<ellipse transform="matrix(0.1172 -0.9931 0.9931 0.1172 264.2301 982.203)" class="st6" cx="684.58" cy="342.48" rx="2.36" ry="2.52"/>
	<ellipse transform="matrix(0.0609 -0.9981 0.9981 0.0609 308.296 1135.9197)" cx="757.83" cy="404.12" rx="9.52" ry="20.64"/>
	<path class="st8" d="M600.08,483.56c-7.08,13.65-24.26,5.58-33.79-1.11c-1.16-0.74-2.29-1.5-3.38-2.28
		c-16.41-11.66-25.29-26.87-20.04-35.07c4.91-7.66,20.51-6.67,36.75,1.65c1.16,0.59,2.32,1.23,3.49,1.9
		c10.9,5.69,25.68,17.51,18.87,31.64C601.44,481.4,600.81,482.5,600.08,483.56z"/>
	<path class="st8" d="M873.34,507.14c-11.02-9.28,0.73-24.01,9.32-31.76c0.98-0.96,1.97-1.88,2.96-2.77
		c14.91-13.31,31.31-18.84,37.69-12.31c5.95,6.09,1.21,20.66-10.55,34.45c-0.84,0.98-1.72,1.97-2.63,2.94
		c-7.99,9.23-22.66,20.97-34.19,11.86C875.03,508.84,874.16,508.03,873.34,507.14z"/>
	<path class="st9" d="M953.06,574.99c0.44-0.02,0.84-0.03,1.22-0.04c0-0.01-0.01-0.03-0.01-0.04L953.06,574.99z"/>
	<path class="st10" d="M601.54,447.53"/>
	<path class="st11" d="M647.76,224.73c0,0-20.67,20.79-1.17,46.45l-6.56,7.89c0,0-23.66-19.5-6.01-44.82
		C634.02,234.24,638.82,227.13,647.76,224.73z"/>
	<path class="st0" d="M676.99,401.46c-2.84,0-5.7-0.16-8.6-0.5c-36.46-4.23-62.93-34.25-59.01-66.92
		c1.92-15.99,10.71-30.16,24.75-39.91c13.77-9.55,30.98-13.69,48.48-11.66c36.46,4.23,62.93,34.25,59.01,66.92v0
		C738.01,379.47,709.88,401.46,676.99,401.46z M675.49,309.82c-9.96,0-19.48,2.66-27.31,7.69c-9.16,5.89-14.88,14.36-16.11,23.85
		c-2.57,19.87,15.45,38.2,40.18,40.86c24.73,2.66,46.93-11.34,49.51-31.21l0,0c2.57-19.87-15.45-38.2-40.18-40.86
		C679.54,309.93,677.51,309.82,675.49,309.82z"/>
	<path class="st0" d="M839.53,406c-2.81,0-5.65-0.16-8.49-0.48c-17.1-1.95-32.51-9.61-43.39-21.57
		c-11.09-12.2-16.17-27.38-14.3-42.76s10.47-29,24.19-38.36c13.46-9.18,30.29-13.16,47.39-11.21c17.1,1.95,32.51,9.61,43.39,21.58
		c11.09,12.2,16.17,27.38,14.29,42.76l-8.07-0.92l8.07,0.92c-1.88,15.37-10.47,29-24.19,38.36C867.21,401.96,853.64,406,839.53,406z
		 M830.73,317.06c-8.57,0-16.75,2.42-23.48,7.02c-7.88,5.38-12.8,13.1-13.85,21.75c-1.06,8.65,1.87,17.27,8.24,24.28
		c6.54,7.19,15.88,11.81,26.31,13c10.43,1.19,20.62-1.2,28.71-6.72c7.88-5.38,12.8-13.1,13.85-21.75l0,0
		c1.06-8.65-1.87-17.27-8.24-24.28c-6.54-7.19-15.88-11.81-26.31-13C834.21,317.16,832.47,317.06,830.73,317.06z"/>
	<path class="st12" d="M677.81,387.04c-2.04,0-4.09-0.11-6.17-0.33c-26.17-2.83-45.17-22.94-42.36-44.83
		c1.38-10.71,7.69-20.2,17.76-26.73c9.88-6.4,22.24-9.17,34.8-7.81c26.17,2.83,45.17,22.94,42.36,44.83v0
		C721.61,372.31,701.42,387.04,677.81,387.04z M679.63,317.95c-7.26,0-14.2,2.12-19.91,6.15c-6.68,4.71-10.85,11.48-11.74,19.07
		c-1.87,15.89,11.26,30.54,29.29,32.67c18.03,2.13,34.21-9.07,36.09-24.95l0,0c1.87-15.89-11.26-30.54-29.29-32.67
		C682.58,318.04,681.09,317.95,679.63,317.95z"/>
	<path class="st12" d="M840.26,389.35c-1.97,0-3.96-0.11-5.95-0.32c-11.98-1.3-22.77-6.39-30.39-14.34
		c-7.77-8.11-11.33-18.2-10.01-28.42c1.31-10.22,7.33-19.27,16.94-25.5c9.43-6.1,21.22-8.75,33.19-7.45
		c11.98,1.3,22.77,6.39,30.39,14.34c7.77,8.11,11.33,18.2,10.01,28.42l-5.65-0.61l5.65,0.61c-1.31,10.22-7.33,19.27-16.94,25.5
		C859.64,386.67,850.14,389.35,840.26,389.35z M834.45,323.44c-6.93,0-13.55,2.03-18.99,5.87c-6.37,4.49-10.35,10.95-11.2,18.19
		c-0.85,7.23,1.51,14.44,6.66,20.3c5.29,6.01,12.84,9.87,21.28,10.87c8.43,0.99,16.68-1,23.22-5.61
		c6.37-4.49,10.35-10.95,11.2-18.19l0,0c0.85-7.23-1.51-14.44-6.66-20.3c-5.29-6.01-12.84-9.87-21.28-10.87
		C837.27,323.53,835.85,323.44,834.45,323.44z"/>
	<path class="st0" d="M778,367c-5.65-2.18-12.95-4.11-21.5-4.11c-5.79,0-13.16,0.88-21.5,4.11c0-10.95,0-21.89,0-32.84
		c4.82-2.84,12.26-6.16,21.5-6.16c5.1,0,12.76,1.01,21.5,6.16C778,345.11,778,356.05,778,367z"/>
</g>
<g id="Warstwa_1">
	<path class="st13" d="M412.82,603.72c2.43,2.11-8.84-2.07-9.54-4.39c-0.07-0.24-0.13-0.38-0.17-0.44c-0.03,0-0.05,0.01-0.08,0.01
		c-0.18,0.51,1.31,7.9,1.31,7.9l-4.31-6.07l-3.48,9.19l-5.39-3.72c-5.48,3.72-5.22,5.96-8.08,13.05
		c-4.81,11.91,3.59,29.3,16.53,31.65s31.48-17.9,33.81-30.77c2.33-12.87-11.12-18.77-24.06-21.12c-0.45-0.08-0.89-0.14-1.32-0.19
		C408.45,600.04,411.77,602.81,412.82,603.72z"/>
	<path class="st3" d="M400.6,638.9c-5.91-8.53-7.51-15.88-0.01-22.86c6.48-6.02,21.98-0.35,27.89,8.19
		c5.91,8.53,1.68,19.56-6.48,22.71C413.69,650.15,406.51,647.43,400.6,638.9z"/>
	<path class="st14" d="M374.02,838.16c-1.94-13.5,5.91-26.43,18.4-27.77c12.95-1.39,34.28,19.16,31.52,32.52
		c-2.45,11.84-17.43,20.01-29.96,17.29C381.23,857.43,375.41,847.88,374.02,838.16z"/>
	<path class="st3" d="M392.59,818.86c5.87-8.56,13.83-13.3,20.64-8.64s7.13,19.72,1.27,28.28s-17.14,8.9-22.52,2.72
		C386.49,834.93,386.72,827.43,392.59,818.86z"/>
	<g id="XMLID_00000088841218428267432500000005802834831063213235_">
		<g>
			<path class="st15" d="M611.55,871.62c44.78-2.83,140.34,38.37,210.55,13.76c-4.4,0.16-9.09-1.14-14.19-1.29
				c-11.63-0.23-25.1-3.86-40.19-12.12c-45.52-24.94-74.39-71.21-74.39-71.21c-11.74-18.3-5.27-13.43-30.32-59.89
				c-17.94-33.26-23.27-39.48-29.87-59.28c-6.1-18.25-8.34-33.26-11.41-53.72c-1.11-7.43-2.8-12.53-1.18-19.37
				c1.65-6.98,4.61-10.01,7.37-13.07l-0.17-0.68c-47.42,11.04-116.26-1.2-167.91,7.7l0.23,1.32l1.37,3.54l2.62,13.32
				c-1.75,38.13-0.3,78.63-0.99,116.01c-1.12,42.7-2.09,116.65-8.98,125.36l-0.82,1.15C494.94,874.86,553.16,875.29,611.55,871.62z"
				/>
			<path class="st16" d="M822.1,885.38c0.09,0,0.17-0.01,0.26-0.01c1.5-0.07,2.96-0.31,4.39-0.84c-0.58,0.01-1.2-0.06-1.84-0.17
				C823.98,884.71,823.04,885.06,822.1,885.38z"/>
			<path class="st16" d="M822.1,885.38c0.94-0.32,1.88-0.67,2.8-1.02c-4.34-0.77-9.89-3.92-15.82-4.61
				c-8.39-0.98-16.06-2.17-24.24-4.96c-25.24-8.55-47.92-30.19-55.3-37.61c-18.11-18.2-28.57-35.04-35.45-46.25
				c-14.84-24.17-11.73-26.93-31.24-61.88c-12.89-23.08-16.31-25.57-22.7-41.29c-3.87-9.54-10.16-24.77-12.8-45.81
				c-1.43-11.4-3.09-26.27,0.58-46.52c-2.76,3.05-5.72,6.08-7.37,13.07c-1.62,6.84,0.08,11.94,1.18,19.37
				c3.06,20.46,5.3,35.47,11.41,53.72c6.6,19.79,11.92,26.02,29.87,59.28c25.05,46.45,18.58,41.59,30.32,59.89
				c0,0,28.87,46.27,74.39,71.21c15.09,8.26,28.56,11.89,40.19,12.12C813.01,884.24,817.7,885.54,822.1,885.38z"/>
			<path class="st17" d="M809.08,879.75c5.93,0.69,11.48,3.84,15.82,4.61c23.28-8.84,43.59-25.19,58.11-53.2
				C971.06,661.27,823.38,522.68,641,590.82c-4.18,1.57-8.61,2.86-13.24,3.95l0.17,0.68c-3.66,20.25-2.01,35.12-0.58,46.52
				c2.65,21.04,8.93,36.27,12.8,45.81c6.39,15.72,9.81,18.21,22.7,41.29c19.51,34.95,16.4,37.71,31.24,61.88
				c6.88,11.2,17.34,28.05,35.45,46.25c7.38,7.42,30.06,29.06,55.3,37.61C793.02,877.58,800.7,878.76,809.08,879.75z"/>
			<path class="st16" d="M453.13,863.37l0.14-0.19c-0.05-0.01-0.09-0.03-0.12-0.05C453.14,863.21,453.14,863.28,453.13,863.37z"/>
			<path class="st16" d="M453.27,863.17l0.82-1.15c6.9-8.72,7.87-82.66,8.98-125.36c0.69-37.38-0.76-77.88,0.99-116.01l-2.62-13.32
				l-1.37-3.54c1.05,65.05-2.58,161.3-5.55,226.3c-0.78,17.26,0.29,12.82-1.37,33.04C453.18,863.14,453.22,863.16,453.27,863.17z"/>
			<path class="st17" d="M453.15,863.13c1.66-20.22,0.59-15.78,1.37-33.04c2.97-65,6.6-161.25,5.55-226.3l-0.23-1.32
				c-31.08,5.35-55.95,18.35-66.2,48.69c-15.25,45.17-26.48,106.88,3.93,173.2C406.25,843.28,426.25,855.56,453.15,863.13z"/>
		</g>
		<g>
		</g>
	</g>
	
		<ellipse transform="matrix(0.0454 -0.999 0.999 0.0454 -281.3965 1304.1796)" class="st2" cx="541.72" cy="799.33" rx="44.91" ry="40.34"/>
	
		<ellipse transform="matrix(0.0454 -0.999 0.999 0.0454 -158.8883 1197.9637)" class="st2" cx="547.39" cy="682.12" rx="44.91" ry="40.34"/>
	<g>
		<path class="st2" d="M607.44,753.58c4.2,0.3,8.4,0.6,12.61,0.9c2.57,0.18,5.3,0.34,7.53-0.64c2.24-0.99,3.56-3.05,3.63-5.12
			c0.12-4.08,0.59-7.45-4.27-8.83c-4.34-1.23-12.2-0.74-16.76-1.02c-1.52-0.09-5.9-0.28-6.24,2.06c-0.33,2.29-0.97,3.62-1.11,5.93
			c-0.14,2.31,1.09,4.68,3.25,6.27"/>
	</g>
	<g>
		<path class="st2" d="M609.91,733.93c4.1-0.4,8.19-0.79,12.29-1.19c2.5-0.24,5.17-0.54,7.16-1.81c2.01-1.28,2.95-3.4,2.68-5.34
			c-0.53-3.81-2.34-5.22-5.39-6.33c-4.04-1.46-12,0.08-16.44,0.55c-1.48,0.16-5.73,0.69-5.69,2.92c0.04,2.18-0.36,3.52-0.13,5.68
			s1.79,4.17,4.12,5.3"/>
	</g>
	<g>
		<path class="st7" d="M597.18,708.72c-4.92,4.2-7.11,10.32-7.15,16.51c-0.11,1.31-0.23,2.66-0.34,4.05
			c-0.22,2.76-0.39,5.65-0.43,8.56c-0.03,1.94,0,3.89,0.05,5.83c-0.35,10.23,1.93,23.25,12.75,27.09c2.84,0.61,6.16,1.24,8.68-1.52
			c6.57-7.83,1.74-17.14,1.7-25.72c-0.13-1.53-0.23-3.06-0.27-4.59c0.24-6.44,0.52-12.64,2.23-18.78c0.67-4.27,1.39-9.5-2.28-13.02
			c-2.78-2.04-7.07-2.23-10.56-1.1C599.97,706.64,598.49,707.56,597.18,708.72z"/>
	</g>
	<ellipse transform="matrix(0.1172 -0.9931 0.9931 0.1172 -343.7178 1258.3031)" cx="535.9" cy="822.48" rx="10.36" ry="10.01"/>
	<ellipse transform="matrix(0.0454 -0.999 0.999 0.0454 -125.6879 1181.3749)" cx="555.31" cy="656.45" rx="10.36" ry="10.01"/>
	
		<ellipse transform="matrix(0.0454 -0.999 0.999 0.0454 -131.802 1181.819)" class="st2" cx="552.49" cy="659.88" rx="3.44" ry="3.22"/>
	
		<ellipse transform="matrix(0.0454 -0.999 0.999 0.0454 -315.3093 1321.5692)" class="st2" cx="533.86" cy="825.77" rx="3.44" ry="3.22"/>
	<ellipse transform="matrix(0.9999 -0.0111 0.0111 0.9999 -8.1601 6.543)" cx="587.27" cy="740.77" rx="8.13" ry="17.62"/>
	<path class="st9" d="M723.96,594.93c-0.04-0.32-0.07-0.61-0.1-0.89c-0.01,0-0.02,0.01-0.03,0.01L723.96,594.93z"/>
	<path class="st10" d="M804.16,841.12"/>
	<path class="st8" d="M633.61,776.88c15.58-7.61,26.52,14.22,31.13,28.49c0.61,1.67,1.17,3.33,1.7,4.97
		c7.86,24.71,6.3,46.79-4.01,50.56c-9.63,3.51-23.69-10.1-33.57-31.42c-0.71-1.52-1.39-3.08-2.05-4.68
		c-6.56-14.41-12.77-37.95,2.86-46.25C630.91,777.89,632.23,777.33,633.61,776.88z"/>
	<path class="st8" d="M633.99,619.21c-13.5-31.26-5-40.62,1.93-42.22c0.77-0.31,1.56-0.55,2.37-0.72
		c12.07-2.55,27.53,10.44,35.62,30.53c7.55,18.76,6.19,37.49-2.54,45.22c-0.62,0.55-1.28,1.05-1.98,1.48
		c-5.97,5.01-18.16,5.17-32.15-26.5C636.12,624.48,635.04,621.88,633.99,619.21z"/>
	<path class="st15" d="M685.42,654.03l30.34-43.2c1.53-2.17,4.23-2.98,6.52-1.95L782,635.76c0.94,0.42,1.35,1.6,0.9,2.6
		l-29.51,66.46c-1.33,2.99-4.77,4.15-7.37,2.49l-57.82-36.93C682.91,667,681.63,659.43,685.42,654.03z"/>
	<path class="st18" d="M504.33,848.07l-7.26,37.05l-21.85-4.28l7.26-37.05c0,0,1.09,0.42,7.3,2.37
		C497.74,848.65,504.33,848.07,504.33,848.07z"/>
	<polygon class="st0" points="498.65,877.52 476.49,875.82 474.82,882 497.74,882.35 	"/>
	<path class="st18" d="M508.74,884.93c2.17,2.37-0.92,12.83-0.92,12.83c-0.08,0.43-0.5,0.71-0.93,0.63c0,0-9.67,0.81-24.12-2.02
		c-17.16-3.36-22-7.38-21.92-7.81c0,0,0.41-10.05,3.07-11.23c2.84-1.26,10.76-1.66,11.19-1.58l24.11,4.57
		C501.96,881.15,507.41,883.48,508.74,884.93z"/>
	<path class="st16" d="M481.1,833.86l-4.43,9.18c-0.26,0.54,0.14,1.16,0.74,1.14l6.09-0.15c0.33-0.01,0.63,0.19,0.76,0.5l3.22,8.08
		c0.19,0.47,0.75,0.65,1.17,0.37l5.76-3.77c0.32-0.21,0.74-0.16,1.01,0.11l4.22,4.33c0.28,0.29,0.74,0.32,1.06,0.07l4.37-3.44
		c0.25-0.2,0.59-0.23,0.87-0.08l3.43,1.85c0.54,0.29,1.19-0.11,1.17-0.73l-0.3-9.74c-0.01-0.35-0.25-0.65-0.59-0.74l-27.63-7.42
		C481.65,833.34,481.26,833.51,481.1,833.86z"/>
	<path class="st15" d="M480.96,832.97l-2.07,7.31c-0.16,0.57,0.28,1.13,0.87,1.1l5.42-0.24c0.38-0.02,0.73,0.22,0.86,0.58l2.7,7.7
		c0.19,0.55,0.86,0.76,1.33,0.42l5.01-3.62c0.36-0.26,0.86-0.21,1.16,0.13l3.55,3.99c0.32,0.35,0.86,0.39,1.22,0.08l3.84-3.32
		c0.28-0.24,0.68-0.28,1-0.1l2.92,1.68c0.55,0.31,1.24-0.04,1.3-0.67l0.79-8.21c0.04-0.43-0.24-0.83-0.67-0.93l-28.19-6.49
		C481.54,832.26,481.08,832.53,480.96,832.97z"/>
	<path class="st12" d="M507.82,897.76c-27.64-11.35-46.97-9.2-46.97-9.2s11.33,5.83,25.13,7.84
		C497.5,898.09,508.23,897.93,507.82,897.76z"/>
	<path class="st18" d="M491.28,614.6l-5.79-37.31l22-3.42l5.79,37.31c0,0-1.17-0.02-7.67,0.26
		C497.28,611.81,491.28,614.6,491.28,614.6z"/>
	<polygon class="st0" points="486.59,584.97 508.01,579.03 507.47,572.65 485.81,580.13 	"/>
	<path class="st18" d="M474.58,581.44c-2.85-1.49-3.5-12.38-3.5-12.38c-0.07-0.43,0.23-0.84,0.66-0.91c0,0,8.81-4.05,23.37-6.31
		c17.28-2.68,23.2-0.56,23.27-0.12c0,0,3.04,9.58,0.94,11.6c-2.24,2.15-9.55,5.23-9.98,5.29l-24.23,3.91
		C482.25,582.69,476.32,582.35,474.58,581.44z"/>
	<path class="st16" d="M517.95,620.25l1.1-10.73c0.04-0.41-0.37-0.73-0.76-0.58l-6.19,2.42c-0.22,0.08-0.46,0.03-0.62-0.15
		l-6.09-6.84c-0.23-0.26-0.65-0.25-0.86,0.04l-4.43,5.89c-0.16,0.21-0.45,0.28-0.69,0.17l-5.81-2.82c-0.26-0.12-0.57-0.04-0.72,0.21
		l-3.13,5.04c-0.12,0.19-0.34,0.29-0.55,0.26l-4.42-0.65c-0.42-0.06-0.76,0.36-0.6,0.76l3.82,9.61c0.09,0.23,0.32,0.37,0.57,0.35
		l28.87-2.47C517.71,620.72,517.92,620.51,517.95,620.25z"/>
	<path class="st15" d="M518.37,620.37l-0.46-6.45c-0.07-0.92-1.02-1.51-1.87-1.15l-4.06,1.68c-0.55,0.23-1.19,0.07-1.57-0.39
		l-4.52-5.53c-0.57-0.7-1.66-0.65-2.17,0.1l-2.87,4.21c-0.39,0.57-1.15,0.76-1.76,0.43l-3.88-2.1c-0.65-0.35-1.46-0.12-1.83,0.53
		l-2.08,3.71c-0.28,0.5-0.85,0.77-1.42,0.67l-2.24-0.39c-0.97-0.17-1.79,0.72-1.55,1.67l1.76,6.85c0.17,0.66,0.8,1.09,1.47,1.01
		l27.84-3.39C517.9,621.73,518.42,621.09,518.37,620.37z"/>
	<path class="st12" d="M471.08,569.06c29.85,1.26,47.29-7.35,47.29-7.35s-12.63-1.62-26.3,1.18
		C480.67,565.24,470.64,569.05,471.08,569.06z"/>
	<path class="st16" d="M441.72,839.22c10.03,2.05,19.84,4.81,29.56,8.77C461.07,849.26,450.6,846.26,441.72,839.22L441.72,839.22z"
		/>
	<path class="st16" d="M442.39,816.07c4.8-0.26,11.56,0.08,16.42,0.14c4.89,0.18,11.58,0.15,16.46,0.71
		C465.03,821.5,453.2,821.23,442.39,816.07L442.39,816.07z"/>
	<path class="st16" d="M444.45,779.16c9.53-2.73,19.3-2.67,28.66,0.25C463.59,782.17,453.81,782.06,444.45,779.16L444.45,779.16z"/>
	<path class="st16" d="M448.01,731.59c9.22-6.38,18.64-8.88,27.82-7.32C466.6,730.68,457.19,733.12,448.01,731.59L448.01,731.59z"/>
	<path class="st16" d="M447.61,684.62c9.61-1.84,19.04,0.15,27.15,5.8C465.29,690.8,456.16,688.83,447.61,684.62L447.61,684.62z"/>
	<path class="st16" d="M448.09,653.28c8.39-8.8,20.03-10.37,29.12-4.9C467.36,649.26,457.85,650.41,448.09,653.28L448.09,653.28z"/>
	<path class="st16" d="M451.51,623.95c5.3-5.68,11.77-8.23,17.84-7.07C463.55,620.54,457.61,622.85,451.51,623.95L451.51,623.95z"/>
	<path class="st16" d="M639.74,661.39c-3.58,0.22-8.66-0.11-12.3-0.18c-3.67-0.18-8.68-0.17-12.35-0.68
		C622.55,656.49,631.42,656.76,639.74,661.39L639.74,661.39z"/>
	<path class="st16" d="M682.05,800.45c2.43-9.48,8.23-17.17,16.8-22.11C695.16,787.08,689.49,794.5,682.05,800.45L682.05,800.45z"/>
	<path class="st16" d="M725.02,816.16c2.43,11.75-2.82,22.25-12.34,26.79C717.48,834.31,721.88,825.81,725.02,816.16L725.02,816.16z
		"/>
	<path class="st16" d="M612.33,625.41c10.1-1.86,18.98,0.51,24.52,6.52C627.8,631.26,619.68,629.04,612.33,625.41L612.33,625.41z"/>
	<path class="st16" d="M757.5,848.15c1.11,10.18,1.47,20.36,0.68,30.83C753.85,869.63,753.51,858.75,757.5,848.15L757.5,848.15z"/>
	<path class="st16" d="M658.68,860.12c-1.95-1.86,11.24-4.13,14.51,0.56c0.14,0.2-0.07,0.54-0.29,0.5
		C668.33,860.28,663.79,859.64,658.68,860.12L658.68,860.12z"/>
	<path class="st16" d="M664.8,853.39c5.08,4.63,5.5,9.68,1.75,12.96c-0.17,0.15-0.57,0-0.5-0.2
		C668.11,859.88,664.03,852.66,664.8,853.39L664.8,853.39z"/>
	<path class="st16" d="M656.48,865.99c-0.96,1.75-8.72-10.55-6.4-15c0.14-0.27,0.74-0.07,0.83,0.28
		C652.2,856.1,653.72,860.85,656.48,865.99L656.48,865.99z"/>
	<path class="st16" d="M646.69,862.15c-2.75-1.04,5.84-9.55,11.5-6.15c0.24,0.14,0.31,0.6,0.11,0.66
		C654.19,857.84,650.29,859.27,646.69,862.15L646.69,862.15z"/>
	<path class="st16" d="M663.29,853.65c-2.05-0.42,4.75-9.9,9.9-8.94c0.31,0.06,0.45,0.62,0.19,0.78
		C669.79,847.7,666.39,850.1,663.29,853.65L663.29,853.65z"/>
	<path class="st16" d="M661.56,844.37c-0.52-2.6,11.49,2.81,11.46,8.45c0,0.24-0.37,0.41-0.53,0.25
		C669.3,849.81,665.99,846.79,661.56,844.37L661.56,844.37z"/>
	<path class="st16" d="M656.22,653.37c-0.36-2.55,10.89,3.58,10.56,9.05c-0.01,0.23-0.38,0.37-0.52,0.2
		C663.37,659.23,660.35,656.05,656.22,653.37L656.22,653.37z"/>
	<path class="st16" d="M664.81,651.96c1.06,6.49-1.63,10.54-6.39,10.77c-0.22,0.01-0.43-0.34-0.26-0.45
		C663.45,658.8,664.67,650.96,664.81,651.96L664.81,651.96z"/>
	<path class="st16" d="M651.07,656.48c-1.76,0.74-0.27-13.1,4.11-15.06c0.27-0.12,0.6,0.39,0.46,0.7
		C653.74,646.5,652.06,650.97,651.07,656.48L651.07,656.48z"/>
	<path class="st16" d="M646.01,647.77c-1.44-2.42,10.06-3.7,12.3,2.22c0.09,0.25-0.12,0.64-0.31,0.56
		C654.21,649,650.42,647.75,646.01,647.77L646.01,647.77z"/>
	<path class="st16" d="M663.53,651.26c-1.29-1.53,9.46-4.61,12.74-0.83c0.2,0.23-0.03,0.73-0.32,0.7
		C671.94,650.65,667.97,650.43,663.53,651.26L663.53,651.26z"/>
	<path class="st16" d="M667.75,643.26c1.16-2.26,6.96,8.94,3.58,13.16c-0.14,0.18-0.52,0.09-0.54-0.13
		C670.32,651.95,669.63,647.71,667.75,643.26L667.75,643.26z"/>
	<path class="st16" d="M657.97,752.74c9.22-6.38,18.64-8.88,27.82-7.32C676.57,751.82,667.15,754.27,657.97,752.74L657.97,752.74z"
		/>
	<path class="st16" d="M730.06,702.93"/>
	<path class="st18" d="M632.75,550.49"/>
	<path class="st16" d="M635.18,703.17c9.26-7.57,20.55-11.03,32.57-9.89C657.79,699.24,646.83,702.54,635.18,703.17L635.18,703.17z"
		/>
	<path class="st16" d="M419.62,610.18c-0.36-2.55,10.89,3.58,10.56,9.05c-0.01,0.23-0.38,0.37-0.52,0.2
		C426.77,616.04,423.75,612.86,419.62,610.18L419.62,610.18z"/>
	<path class="st16" d="M407.1,641.18c-5.69,3.31-10.43,2.24-12.34-2.12c-0.09-0.2,0.16-0.52,0.33-0.4
		C400.22,642.35,407.99,640.69,407.1,641.18L407.1,641.18z"/>
	<path class="st16" d="M403.41,649.2c0.26,2.8-10.67-1.01-10.13-7.31c0.02-0.26,0.39-0.52,0.52-0.37
		C396.55,644.56,399.43,647.32,403.41,649.2L403.41,649.2z"/>
	<path class="st16" d="M417.4,612.94c0.91-2.36,7.85,8.17,4.93,12.72c-0.12,0.19-0.51,0.14-0.55-0.07
		C420.86,621.31,419.73,617.17,417.4,612.94L417.4,612.94z"/>
	<path class="st16" d="M388.79,815.9c-1.66-0.21,4.05-9.85,7.42-8.33c0.14,0.06,0.17,0.45,0.04,0.55
		C393.65,810.2,391.16,812.46,388.79,815.9L388.79,815.9z"/>
	<path class="st16" d="M417.54,836.07c1.89,6.3-0.25,10.66-4.94,11.5c-0.22,0.04-0.47-0.28-0.31-0.41
		C417.07,843.04,417.27,835.1,417.54,836.07L417.54,836.07z"/>
	<path class="st16" d="M424.48,841.53c2.78,0.41-3.47,10.14-9.48,8.14c-0.25-0.08-0.42-0.5-0.24-0.6
		C418.36,847.13,421.71,844.97,424.48,841.53L424.48,841.53z"/>
	<path class="st16" d="M390.15,818.67c-1.33-1.41,6.42-5.88,8.78-2.04c0.1,0.16,0,0.53-0.14,0.52
		C395.96,817.11,393.18,817.31,390.15,818.67L390.15,818.67z"/>
	<path class="st14" d="M404.68,859.21c0,0-1.57,4.05-0.32,7.02s-5.28-3.29-4.89-5.67c0.39-2.39-2,4.23-2,4.23l-1.54-4.39l-6.8,3.17
		l3.1-5.74L404.68,859.21z"/>
	<path class="st14" d="M377.3,829.06c0,0-5.91-1.49-10.22-1.53s4.78-1.65,8.26-1.01c3.48,0.65-6.17-1.71-6.17-1.71l6.4,0.2
		l-4.63-3.6l8.37,2.5L377.3,829.06z"/>
	<path class="st14" d="M387.14,857.38c0,0-2.28,2.6-3.02,4.97c-0.74,2.37-0.69-3.37,0.44-5.01c1.14-1.64-2.52,2.65-2.52,2.65
		l1.21-3.45l-3.95,0.97l3.57-3.52L387.14,857.38z"/>
	<path class="st16" d="M739.69,696.86c1.43-0.19,3.81,11.95,0.29,12.54c-0.21,0.04-0.66-0.51-0.62-0.76
		C739.93,705.18,740.27,701.58,739.69,696.86L739.69,696.86z"/>
	<path class="st16" d="M759.58,632.29c-0.87-1.11,8.71-7.87,10.95-5.17c0.14,0.16-0.13,0.75-0.37,0.81
		C766.82,628.82,763.47,629.95,759.58,632.29L759.58,632.29z"/>
	<path class="st16" d="M766.45,668.23c4.98-0.21,8.96,2.02,11.45,6.47C773.34,673.98,769.49,671.79,766.45,668.23L766.45,668.23z"/>
	<path class="st16" d="M693.75,684.13c1.02-4.64,3.81-8.31,8.06-10.56C700.13,677.81,697.41,681.36,693.75,684.13L693.75,684.13z"/>
	<path class="st16" d="M733.7,607.5c0.14,4.13-0.15,8.31-1.14,12.66C730.51,616.52,730.85,612.06,733.7,607.5L733.7,607.5z"/>
	<path class="st16" d="M708.08,633.53c-1.77-0.38-4.19-1.36-5.95-1.94c-1.76-0.66-4.19-1.4-5.92-2.3
		C700.32,627.55,704.59,629.05,708.08,633.53L708.08,633.53z"/>
</g>
<g id="Warstwa_3">
	<path class="st19" d="M555.31,599c0,0-164.31,7-168.14,197.83c-2.42,120.74,0,0,0,0S367.86,729.42,389,666c19-57,41-55,63-62
		C476.29,596.27,555.31,599,555.31,599"/>
	<path class="st20" d="M710.19,575.53c0,0,32.31,40.71,22.59,73.09C723.07,681,729.83,706.03,742,722s-41.98,74.21-39.93,93.1
		c2.04,18.9,2.26,64.42,25.37,78.16C750.55,907,777,771.28,777,771.28V668.45l-30.82-73.51L710.19,575.53z"/>
	<g id="XMLID_00000161623148855951665090000007632689511732042646_">
		<g>
			<path class="st2" d="M1161.5,921.5C1167.81,922.79,734,904,734,904s-33.38-22.67-17.5-81.5c0.34-1.26,3.91-25.26,7.33-32.97
				c9.32-20.98,41.96-58.89,23.49-88.78c-4.21-6.82-5.82-14.35-5.23-21.94c2.93-37.16,9.5-76.6-34.68-103.28l0.15-0.3
				c65.68-9.61,120.75-10.85,166.97-6.02l-0.03,0.29c0,0,158.69,41.49,239.46,190.84c1.81,7.58,3.22,14.67,4.35,21.07
				C1129.93,846.92,1161.5,921.5,1161.5,921.5z"/>
			<path class="st21" d="M874.53,569.21c175.57,18.32,223.42,124.13,239.43,191.13C1033.19,610.99,874.5,569.5,874.5,569.5
				L874.53,569.21z"/>
		</g>
		<g>
			<path class="st22" d="M874.5,569.5c0,0,158.69,41.49,239.46,190.84c2.07,3.81,4.08,7.7,6.04,11.66"/>
		</g>
	</g>
</g>
</svg>
